<svg width="195" height="195" viewBox="0 0 195 195" fill="none" xmlns="http://www.w3.org/2000/svg">
<g clip-path="url(#clip0_45_124)">
<g opacity="0.3">
<path d="M64.4767 116.076L64.0081 116.294L63.8352 115.923C63.7967 115.84 63.7506 115.772 63.6969 115.718C63.6404 115.658 63.5642 115.626 63.4683 115.62C63.3725 115.614 63.248 115.647 63.0947 115.719L58.7893 117.724C58.6302 117.798 58.5219 117.874 58.4645 117.951C58.4071 118.027 58.3831 118.107 58.3924 118.188C58.3991 118.264 58.4216 118.343 58.46 118.426L58.633 118.797L58.1644 119.015L56.8386 116.169C56.5778 115.609 56.4269 115.123 56.386 114.712C56.3423 114.295 56.4045 113.943 56.5724 113.657C56.7344 113.373 56.9923 113.149 57.3459 112.985C57.6583 112.839 57.9509 112.775 58.2239 112.791C58.4969 112.807 58.7466 112.874 58.9732 112.991C59.1997 113.107 59.4009 113.247 59.5768 113.409L60.8991 111.513C60.9931 111.376 61.0708 111.25 61.1321 111.135C61.1876 111.023 61.2297 110.921 61.2585 110.829C61.2845 110.731 61.2944 110.637 61.2881 110.546C61.276 110.459 61.2508 110.374 61.2123 110.291L61.1959 110.256L61.6644 110.037L61.8003 110.329C61.9238 110.594 62.0234 110.831 62.0991 111.04C62.1661 111.245 62.2074 111.434 62.2229 111.606C62.2299 111.775 62.2064 111.94 62.1524 112.102C62.0985 112.263 62.0096 112.426 61.8858 112.592L60.4308 114.55L60.7025 115.133L62.4442 114.322C62.5974 114.251 62.7027 114.176 62.7601 114.099C62.8175 114.022 62.8416 113.943 62.8322 113.861C62.8228 113.78 62.8003 113.701 62.7646 113.624L62.5876 113.244L63.0561 113.026L64.4767 116.076ZM59.9592 114.877C59.8329 114.606 59.687 114.415 59.5213 114.306C59.347 114.194 59.1504 114.149 58.9316 114.172C58.7069 114.198 58.4502 114.278 58.1614 114.412C57.8608 114.552 57.6386 114.699 57.4947 114.852C57.345 115.008 57.2659 115.184 57.2575 115.382C57.2491 115.58 57.3066 115.811 57.4302 116.076L57.6525 116.554L60.1898 115.372L59.9592 114.877Z" fill="url(#paint0_radial_45_124)"/>
<path d="M61.7846 110.128L61.2857 110.263L61.1787 109.867C61.1549 109.779 61.1211 109.704 61.0773 109.642C61.0318 109.574 60.9623 109.529 60.8688 109.507C60.7753 109.485 60.647 109.496 60.4838 109.54L55.9371 110.772C55.7551 110.821 55.6293 110.878 55.5596 110.945C55.482 111.006 55.4408 111.078 55.4361 111.16C55.4234 111.237 55.4298 111.323 55.4553 111.417L55.5624 111.813L55.0634 111.948L53.6486 106.723L55.3704 106.217L55.5489 106.876L55.1192 107.042C54.9657 107.097 54.8456 107.164 54.7588 107.241C54.664 107.314 54.5994 107.399 54.565 107.496C54.5306 107.593 54.5313 107.707 54.5669 107.839L54.9952 109.42L57.3486 108.783L56.7444 106.552L57.3092 106.399L57.9134 108.63L60.568 107.911L60.0581 106.028C60.0241 105.903 59.9647 105.808 59.8799 105.743C59.795 105.678 59.6933 105.639 59.5747 105.624C59.4544 105.602 59.3227 105.601 59.1795 105.62L58.7167 105.664L58.5408 105.014L60.2907 104.611L61.7846 110.128Z" fill="url(#paint1_radial_45_124)"/>
<path d="M60.1853 104.112L59.6704 104.157L59.6351 103.749C59.6273 103.658 59.6073 103.578 59.5752 103.509C59.5426 103.434 59.4822 103.377 59.3941 103.339C59.306 103.301 59.1777 103.289 59.0093 103.303L54.2775 103.712C54.1026 103.727 53.975 103.761 53.8947 103.814C53.8144 103.867 53.7646 103.933 53.7455 104.013C53.7257 104.086 53.7197 104.168 53.7276 104.259L53.7628 104.667L53.2479 104.712L52.9582 101.36L53.4732 101.315L53.5084 101.723C53.5163 101.814 53.5398 101.897 53.5789 101.972C53.6115 102.047 53.6751 102.104 53.7697 102.141C53.8578 102.179 53.9958 102.19 54.1837 102.174L56.4476 101.978L54.6754 100.614C54.5141 100.484 54.375 100.385 54.2582 100.317C54.1349 100.25 54.0265 100.204 53.933 100.179C53.8325 100.148 53.7369 100.137 53.6462 100.145C53.5749 100.151 53.5215 100.175 53.486 100.218C53.4435 100.254 53.4191 100.311 53.4129 100.39C53.4001 100.47 53.3997 100.577 53.4114 100.713L52.9062 100.757L52.6786 98.124L53.1839 98.0803C53.199 98.2552 53.2489 98.4173 53.3336 98.5666C53.4183 98.7159 53.5318 98.8595 53.6743 98.9973C53.8161 99.1286 53.978 99.2647 54.1598 99.4056L55.6795 100.566L58.3897 98.5115C58.5303 98.4015 58.6487 98.2999 58.7451 98.2067C58.8344 98.1076 58.9078 98.0132 58.9653 97.9234C59.0158 97.8277 59.0501 97.7333 59.0681 97.6404C59.0857 97.541 59.0899 97.4395 59.081 97.3358L59.0776 97.297L59.5926 97.2525L59.6379 97.7772C59.6698 98.1464 59.6799 98.4522 59.6683 98.6947C59.6501 98.9377 59.6121 99.14 59.5543 99.3017C59.4894 99.4574 59.4062 99.5886 59.3044 99.6952C59.2027 99.8019 59.078 99.9073 58.9304 100.011L56.809 101.516L57.186 101.914L58.8281 101.772C59.0094 101.757 59.1435 101.722 59.2303 101.669C59.317 101.616 59.3733 101.549 59.3989 101.469C59.4181 101.389 59.4238 101.303 59.416 101.213L59.3807 100.805L59.8957 100.76L60.1853 104.112Z" fill="url(#paint2_radial_45_124)"/>
<path d="M59.989 94.8828C59.9551 95.3171 59.8879 95.6771 59.7874 95.9627C59.6803 96.2478 59.5552 96.4728 59.4119 96.6377C59.2621 96.8021 59.1031 96.9169 58.935 96.982C58.7674 97.0407 58.6058 97.0639 58.4502 97.0518C58.2299 97.0346 58.0589 96.9691 57.9373 96.8553C57.8093 96.7409 57.7227 96.5972 57.6775 96.4241C57.6323 96.251 57.6171 96.0705 57.6317 95.8825C58.0012 95.9114 58.3167 95.8806 58.5781 95.7901C58.8335 95.6926 59.0338 95.5485 59.1792 95.3577C59.318 95.1663 59.3975 94.941 59.4178 94.6817C59.4476 94.2993 59.3702 93.9965 59.1854 93.7734C59.0011 93.5439 58.7599 93.4174 58.4618 93.3942C58.2414 93.377 58.0486 93.4239 57.8834 93.5349C57.7123 93.6389 57.5525 93.8058 57.4042 94.0355C57.2493 94.2647 57.0832 94.555 56.9058 94.9064C56.7434 95.2328 56.5785 95.5069 56.4112 95.7286C56.2439 95.9503 56.0704 96.1259 55.8908 96.2554C55.7046 96.3843 55.5118 96.4736 55.3123 96.5232C55.1068 96.5659 54.8841 96.5779 54.6443 96.5592C54.2489 96.5283 53.9134 96.3978 53.6379 96.1676C53.3624 95.9374 53.1576 95.6377 53.0233 95.2686C52.8896 94.893 52.8405 94.4783 52.8759 94.0245C52.9133 93.5449 52.9958 93.1567 53.1232 92.8602C53.2442 92.5631 53.3946 92.3499 53.5742 92.2204C53.7544 92.0845 53.9514 92.0249 54.1653 92.0415C54.3922 92.0593 54.5756 92.1746 54.7155 92.3877C54.8559 92.5943 54.9104 92.8986 54.879 93.3004C54.6975 93.2863 54.5003 93.3068 54.2873 93.3619C54.0748 93.4105 53.8882 93.5036 53.7275 93.641C53.5668 93.7785 53.4766 93.9736 53.4568 94.2264C53.4432 94.4014 53.4662 94.5662 53.5258 94.7209C53.5795 94.8685 53.6709 94.993 53.7999 95.0944C53.923 95.1888 54.0818 95.2436 54.2762 95.2588C54.4577 95.2729 54.6295 95.2439 54.7917 95.1718C54.9538 95.0997 55.1218 94.953 55.2956 94.7318C55.4629 94.5101 55.651 94.1889 55.8599 93.7683C56.0763 93.3352 56.2923 92.9901 56.508 92.733C56.7237 92.476 56.9595 92.2955 57.2155 92.1915C57.4649 92.0871 57.7484 92.0472 58.066 92.072C58.4809 92.1044 58.8418 92.2434 59.1487 92.4891C59.4496 92.7278 59.6754 93.0519 59.826 93.4615C59.9767 93.8711 60.031 94.3448 59.989 94.8828Z" fill="url(#paint3_radial_45_124)"/>
<path d="M60.0506 92.1542L59.5487 92.0304L59.5767 91.9168C59.6048 91.8032 59.6107 91.6975 59.5947 91.5998C59.5786 91.5021 59.5318 91.4068 59.4542 91.3141C59.3719 91.2134 59.2446 91.105 59.0723 90.9888L54.0114 87.561L54.3313 86.2638L60.3965 85.6602C60.5888 85.6407 60.744 85.6087 60.8622 85.5641C60.9755 85.5117 61.0644 85.45 61.1289 85.3788C61.1885 85.2998 61.2308 85.2097 61.2557 85.1087L61.2978 84.9383L61.7996 85.0621L61.029 88.1868L60.5272 88.063L60.6182 87.6937C60.6416 87.599 60.6358 87.5005 60.6007 87.3981C60.5657 87.2957 60.4819 87.2282 60.3494 87.1955C60.2989 87.183 60.2468 87.1769 60.1932 87.1771C60.1411 87.1709 60.0915 87.1687 60.0442 87.1704C59.9969 87.1722 59.9559 87.1755 59.9212 87.1803L58.8926 87.2782L58.3251 89.5791L59.0717 90.0545C59.1191 90.0796 59.172 90.1094 59.2305 90.1439C59.2889 90.1784 59.3513 90.2105 59.4177 90.2403C59.4777 90.2685 59.5329 90.2888 59.5834 90.3013C59.7034 90.3308 59.8058 90.3092 59.8907 90.2364C59.9756 90.1636 60.0313 90.0736 60.0578 89.9662L60.1559 89.5686L60.6577 89.6923L60.0506 92.1542ZM57.7966 89.2378L58.2683 87.3251L56.5916 87.444C56.4355 87.4524 56.2692 87.4616 56.0926 87.4716C55.9097 87.4801 55.7276 87.4854 55.5463 87.4875C55.3649 87.4897 55.197 87.4918 55.0425 87.4939C55.1372 87.544 55.2399 87.6028 55.3505 87.6703C55.4548 87.7362 55.5654 87.8037 55.6823 87.8727C55.7929 87.9401 55.9059 88.0115 56.0213 88.0868C56.1318 88.1543 56.2361 88.2202 56.3341 88.2845L57.7966 89.2378Z" fill="url(#paint4_radial_45_124)"/>
<path d="M64.1773 80.4031C63.9198 80.87 63.6304 81.2264 63.309 81.4724C62.9852 81.7096 62.6423 81.8397 62.2806 81.8629C61.9162 81.8773 61.5433 81.7793 61.1619 81.5689C60.826 81.3836 60.5917 81.169 60.459 80.925C60.3237 80.6722 60.2518 80.3986 60.2434 80.1044C60.2292 79.807 60.2431 79.4991 60.2851 79.1807C60.0212 79.2282 59.7858 79.258 59.5787 79.27C59.3659 79.2788 59.1672 79.2621 58.9827 79.2197C58.7925 79.1742 58.6034 79.0996 58.4156 78.996C58.1651 78.8578 57.9804 78.6743 57.8617 78.4454C57.746 78.2108 57.7076 77.9372 57.7464 77.6245C57.7796 77.3086 57.8998 76.9628 58.107 76.5871C58.308 76.2227 58.5314 75.9524 58.7771 75.7761C59.0203 75.591 59.266 75.4889 59.5141 75.4698C59.7622 75.4507 59.9973 75.5024 60.2193 75.6249C60.447 75.7505 60.6225 75.9104 60.7456 76.1045C60.8661 76.2898 60.9442 76.5185 60.9797 76.7906C61.0184 77.0569 61.0244 77.3758 60.9978 77.7472L63.0318 77.2096C62.8514 77.0656 62.6675 76.9345 62.4802 76.8163C62.293 76.6982 62.1196 76.5951 61.9602 76.5072L61.5845 76.2999L62.616 74.4298L63.0686 74.6794L62.9933 74.816C62.9242 74.9413 62.8709 75.0715 62.8334 75.2068C62.7934 75.3332 62.7881 75.464 62.8176 75.599C62.8502 75.7284 62.9406 75.8673 63.0888 76.0159C63.2262 76.1437 63.3688 76.2892 63.5164 76.4523C63.6583 76.6122 63.7968 76.7852 63.9319 76.971L65.2911 76.607C65.3794 76.5814 65.4595 76.5439 65.5313 76.4945C65.5975 76.4418 65.6598 76.376 65.7183 76.2969C65.7768 76.2177 65.8343 76.1269 65.8908 76.0245L65.9332 75.9476L66.3858 76.1973L65.4531 77.8881L64.5047 78.1335C64.5629 78.3512 64.5958 78.5809 64.6035 78.8228C64.6111 79.0646 64.5819 79.3195 64.5158 79.5875C64.4471 79.8466 64.3343 80.1185 64.1773 80.4031ZM63.7229 79.8741C63.8893 79.5723 63.9822 79.2894 64.0016 79.0254C64.0153 78.7583 63.9773 78.5108 63.8876 78.2831L60.9326 79.0366C60.9585 79.2589 61.0162 79.4503 61.1057 79.6111C61.1896 79.7687 61.2989 79.907 61.4338 80.0259C61.5661 80.1361 61.7205 80.2398 61.897 80.3371C62.0678 80.4313 62.2413 80.4936 62.4176 80.5241C62.5914 80.5456 62.759 80.5379 62.9205 80.5007C63.0821 80.4636 63.2319 80.394 63.3699 80.2919C63.511 80.1841 63.6287 80.0449 63.7229 79.8741ZM60.4157 77.8939C60.4109 77.5795 60.3496 77.334 60.2316 77.1575C60.111 76.9722 59.9198 76.8074 59.6579 76.6629C59.5213 76.5875 59.3923 76.5387 59.271 76.5163C59.144 76.4908 59.0256 76.5035 58.9159 76.5543C58.8062 76.6052 58.7073 76.7103 58.6194 76.8697C58.5126 77.0633 58.5024 77.2433 58.5888 77.4097C58.6784 77.5705 58.8256 77.7074 59.0306 77.8205C59.1615 77.8927 59.2977 77.9418 59.4393 77.9679C59.5751 77.9909 59.7204 77.9968 59.8751 77.9856C60.0329 77.9687 60.2131 77.9381 60.4157 77.8939Z" fill="url(#paint5_radial_45_124)"/>
<path d="M68.0338 74.1968L67.6599 73.8399L67.9427 73.5436C68.0055 73.4778 68.0522 73.41 68.0828 73.3403C68.1179 73.2659 68.1205 73.1831 68.0908 73.0918C68.0611 73.0005 67.9851 72.8965 67.8628 72.7798L64.427 69.5007C64.3 69.3795 64.1902 69.3061 64.0976 69.2807C64.0051 69.2553 63.9224 69.2618 63.8498 69.3003C63.7816 69.3341 63.7161 69.3839 63.6532 69.4497L63.3704 69.746L62.9965 69.3892L65.1646 67.1174C65.5911 66.6706 65.9883 66.3532 66.3565 66.1653C66.729 65.9727 67.0792 65.9024 67.4069 65.9546C67.7299 66.0022 68.0325 66.1607 68.3147 66.43C68.564 66.6679 68.7308 66.917 68.815 67.1771C68.8993 67.4373 68.9283 67.6941 68.902 67.9477C68.8757 68.2012 68.8192 68.4394 68.7324 68.6621L70.98 69.2029C71.1418 69.2405 71.2873 69.267 71.4164 69.2824C71.5408 69.2933 71.6512 69.2953 71.7476 69.2885C71.8485 69.2769 71.9399 69.2518 72.0218 69.2131C72.099 69.1699 72.169 69.1154 72.2318 69.0495L72.2588 69.0213L72.6327 69.3782L72.4105 69.611C72.2085 69.8226 72.0241 70.0017 71.8574 70.1481C71.6904 70.2854 71.5297 70.3926 71.3751 70.4698C71.2204 70.5378 71.058 70.5761 70.8881 70.5846C70.7181 70.5932 70.5336 70.5699 70.3346 70.5148L67.9812 69.873L67.5368 70.3386L68.9267 71.6651C69.0489 71.7818 69.1564 71.8529 69.2489 71.8783C69.3415 71.9037 69.4241 71.8972 69.4968 71.8587C69.5695 71.8202 69.635 71.7704 69.6934 71.7093L69.9829 71.4059L70.3568 71.7628L68.0338 74.1968ZM67.5047 69.553C67.7112 69.3366 67.8351 69.1314 67.8766 68.9373C67.9178 68.734 67.8879 68.5347 67.7868 68.3393C67.6809 68.1394 67.5128 67.9295 67.2823 67.7095C67.0424 67.4806 66.825 67.327 66.6301 67.2488C66.4304 67.1661 66.237 67.1568 66.05 67.2209C65.8629 67.2851 65.6684 67.423 65.4664 67.6346L65.1028 68.0156L67.1276 69.9481L67.5047 69.553Z" fill="url(#paint6_radial_45_124)"/>
<path d="M72.5967 69.5222L72.2893 69.1067L72.6186 68.863C72.6917 68.8089 72.7493 68.7501 72.7914 68.6867C72.8386 68.6194 72.8554 68.5382 72.8417 68.4432C72.828 68.3482 72.7709 68.2327 72.6704 68.0968L69.8689 64.31C69.7567 64.1584 69.6572 64.0622 69.5704 64.0213C69.4849 63.9713 69.403 63.9591 69.3249 63.9846C69.248 64.001 69.1704 64.0382 69.092 64.0962L68.7627 64.3398L68.4553 63.9243L72.8066 60.7051L73.9052 62.1245L73.3564 62.5305L73.0446 62.1911C72.9375 62.0681 72.8321 61.9803 72.7284 61.9276C72.6261 61.8658 72.5235 61.8365 72.4208 61.8398C72.318 61.843 72.2118 61.8852 72.102 61.9664L70.7849 62.9409L72.2349 64.9009L74.0931 63.5263L74.4411 63.9967L72.5829 65.3713L74.2186 67.5823L75.7866 66.4222C75.8912 66.3449 75.9581 66.2549 75.9874 66.1524C76.0166 66.0499 76.0167 65.9406 75.9876 65.8247C75.9636 65.7049 75.917 65.5817 75.8476 65.4551L75.6377 65.0403L76.1787 64.64L77.191 66.1232L72.5967 69.5222Z" fill="url(#paint7_radial_45_124)"/>
<path d="M79.7704 64.8901C79.3847 65.0927 79.0442 65.2274 78.7489 65.2944C78.4506 65.3556 78.1935 65.3694 77.9776 65.3359C77.7587 65.2967 77.577 65.2232 77.4323 65.1156C77.2934 65.0049 77.1877 64.8805 77.1151 64.7424C77.0124 64.5467 76.9768 64.3671 77.0084 64.2036C77.037 64.0343 77.1126 63.8845 77.235 63.7541C77.3575 63.6237 77.5022 63.5147 77.6691 63.427C77.8414 63.7551 78.0355 64.0057 78.2512 64.1788C78.4697 64.3431 78.6984 64.436 78.9373 64.4574C79.1732 64.4731 79.4062 64.4204 79.6365 64.2995C79.9761 64.1212 80.1911 63.8944 80.2816 63.6192C80.3779 63.341 80.3565 63.0695 80.2174 62.8047C80.1146 62.609 79.9723 62.4708 79.7904 62.3901C79.6112 62.3006 79.3849 62.2542 79.1114 62.251C78.835 62.2419 78.5008 62.2559 78.1089 62.2928C77.7461 62.3291 77.4263 62.3354 77.1496 62.3119C76.8728 62.2883 76.6318 62.235 76.4266 62.1518C76.2184 62.0629 76.0401 61.9472 75.8918 61.8047C75.7463 61.6535 75.6176 61.4714 75.5058 61.2584C75.3214 60.9073 75.2533 60.5539 75.3014 60.1981C75.3496 59.8423 75.4942 59.5094 75.7352 59.1992C75.982 58.886 76.3068 58.6236 76.7098 58.412C77.1357 58.1883 77.5082 58.0515 77.8271 58.0015C78.143 57.9457 78.4035 57.9595 78.6087 58.0426C78.8197 58.1227 78.9751 58.2578 79.0749 58.4477C79.1807 58.6492 79.1806 58.8659 79.0747 59.0977C78.9746 59.3266 78.7461 59.5347 78.3892 59.7221C78.3046 59.5609 78.1822 59.4049 78.0222 59.2539C77.8679 59.1 77.6898 58.9916 77.4878 58.9287C77.2859 58.8658 77.0727 58.8933 76.8482 59.0112C76.6928 59.0929 76.5655 59.2001 76.4664 59.3329C76.37 59.457 76.3132 59.6006 76.2961 59.7638C76.2818 59.9183 76.3199 60.0818 76.4106 60.2545C76.4952 60.4157 76.6113 60.5457 76.7586 60.6445C76.906 60.7434 77.1196 60.8075 77.3994 60.8368C77.6761 60.8604 78.0481 60.8486 78.5154 60.8015C78.9972 60.7541 79.4044 60.7532 79.7368 60.7989C80.0693 60.8447 80.3476 60.9482 80.5719 61.1095C80.7931 61.265 80.9777 61.4838 81.1259 61.7659C81.3193 62.1343 81.3938 62.5137 81.3492 62.9043C81.3074 63.2861 81.1532 63.6498 80.8868 63.9954C80.6203 64.341 80.2481 64.6392 79.7704 64.8901Z" fill="url(#paint8_radial_45_124)"/>
<path d="M83.4831 63.0577L83.3146 62.5691L83.7019 62.4355C83.7941 62.4037 83.8697 62.3639 83.9289 62.316C83.992 62.2598 84.0272 62.1824 84.0344 62.0836C84.0478 61.9827 84.0248 61.8462 83.9654 61.6741L82.2646 56.7415L81.527 56.9959C81.3426 57.0594 81.2077 57.1369 81.1223 57.2283C81.0347 57.3135 80.9833 57.4137 80.9681 57.529C80.9528 57.6443 80.9593 57.7728 80.9874 57.9143L81.12 58.5082L80.5023 58.7212L79.9316 56.9167L85.6756 54.936L86.3384 56.7088L85.7207 56.9218L85.459 56.3724C85.4001 56.2414 85.326 56.1363 85.2368 56.057C85.1537 55.9757 85.0515 55.9284 84.93 55.9152C84.8065 55.896 84.6525 55.9181 84.4681 55.9817L83.7305 56.236L85.4314 61.1686C85.4907 61.3407 85.5537 61.4634 85.6202 61.5368C85.6929 61.608 85.7714 61.6462 85.8558 61.6515C85.938 61.6507 86.0222 61.6354 86.1082 61.6058L86.4955 61.4722L86.664 61.9609L83.4831 63.0577Z" fill="url(#paint9_radial_45_124)"/>
<path d="M88.1269 61.5872L88.0245 61.0806L88.426 60.9995C88.5216 60.9801 88.6018 60.9506 88.6668 60.911C88.7368 60.8637 88.7819 60.7915 88.8021 60.6946C88.8287 60.5963 88.824 60.458 88.7879 60.2796L87.8644 55.7103C87.8271 55.5254 87.7777 55.3961 87.7164 55.3223C87.6601 55.2408 87.5911 55.195 87.5095 55.185C87.433 55.1673 87.3469 55.1681 87.2513 55.1874L86.8498 55.2686L86.7474 54.7619L90.0454 54.0954L90.1478 54.602L89.7463 54.6832C89.6571 54.7012 89.5774 54.7339 89.5074 54.7812C89.4361 54.8222 89.3871 54.8917 89.3605 54.99C89.3391 55.0806 89.347 55.2182 89.3843 55.4031L90.3078 59.9724C90.3439 60.1508 90.3901 60.2808 90.4463 60.3623C90.509 60.4425 90.5818 60.4908 90.6647 60.5072C90.7463 60.5172 90.8317 60.5132 90.9209 60.4952L91.3224 60.4141L91.4248 60.9207L88.1269 61.5872Z" fill="url(#paint10_radial_45_124)"/>
<path d="M95.9072 58.6365C95.6407 58.6449 95.3989 58.6069 95.1816 58.5227C94.9641 58.4319 94.79 58.2747 94.6594 58.0512C94.5353 57.8274 94.4673 57.5238 94.4552 57.1404C94.443 56.7505 94.4919 56.4432 94.602 56.2186C94.7183 55.9873 94.8823 55.8228 95.0939 55.7251C95.3053 55.6209 95.5442 55.5646 95.8107 55.5562C96.0706 55.5481 96.3061 55.5895 96.5171 55.6805C96.7344 55.7647 96.9083 55.9187 97.0389 56.1422C97.1758 56.3591 97.2504 56.6625 97.2626 57.0524C97.2746 57.4358 97.2192 57.7433 97.0964 57.9748C96.98 58.2061 96.8161 58.3739 96.6047 58.4781C96.3996 58.5756 96.1671 58.6284 95.9072 58.6365Z" fill="url(#paint11_radial_45_124)"/>
<path d="M101.175 60.7526L101.258 60.2425L102.047 60.3709C102.156 60.3886 102.249 60.384 102.326 60.357C102.403 60.33 102.465 60.2742 102.512 60.1895C102.565 60.106 102.604 59.9839 102.63 59.8235L103.415 55.0009C103.222 55.1738 103.043 55.3257 102.877 55.4567C102.711 55.5814 102.558 55.6749 102.416 55.7375C102.274 55.8 102.139 55.8209 102.011 55.8C101.857 55.7749 101.735 55.6893 101.647 55.5432C101.559 55.3971 101.533 55.215 101.568 54.9968C101.702 54.9856 101.846 54.9663 102.002 54.939C102.159 54.9053 102.332 54.8544 102.521 54.7863C102.718 54.7129 102.934 54.6164 103.171 54.4968L103.926 54.1059L105.004 54.2813L104.065 60.0569C104.043 60.1917 104.037 60.3092 104.047 60.4097C104.058 60.5037 104.095 60.5821 104.157 60.645C104.22 60.7014 104.319 60.7405 104.454 60.7625L105.234 60.8893L105.151 61.3995L101.175 60.7526Z" fill="url(#paint12_radial_45_124)"/>
<path d="M106.07 61.6099L106.377 60.6533L108.201 59.6914C108.579 59.4917 108.898 59.3039 109.16 59.1282C109.423 58.9462 109.641 58.7669 109.813 58.5901C109.986 58.4133 110.128 58.2266 110.239 58.03C110.349 57.8334 110.443 57.6143 110.521 57.3728C110.596 57.1376 110.627 56.9357 110.613 56.7673C110.606 56.5946 110.559 56.4564 110.469 56.3526C110.387 56.2445 110.272 56.1667 110.124 56.1191C109.913 56.0516 109.726 56.06 109.563 56.1441C109.401 56.2221 109.254 56.3729 109.121 56.5965C108.99 56.8139 108.868 57.0991 108.755 57.452C108.519 57.3766 108.322 57.2792 108.162 57.1597C108.002 57.0402 107.894 56.8996 107.836 56.7379C107.781 56.5699 107.789 56.3745 107.86 56.1516C107.932 55.9287 108.073 55.7451 108.283 55.6008C108.499 55.4584 108.777 55.3801 109.116 55.3659C109.457 55.3455 109.853 55.4077 110.305 55.5526C110.77 55.7014 111.14 55.8883 111.416 56.1133C111.692 56.3383 111.874 56.5912 111.962 56.8719C112.049 57.1525 112.041 57.4539 111.938 57.7758C111.883 57.9492 111.803 58.1115 111.7 58.2628C111.599 58.4079 111.464 58.5524 111.295 58.6962C111.132 58.8421 110.923 58.9936 110.668 59.1507C110.421 59.3037 110.118 59.4728 109.758 59.6579C109.398 59.843 108.976 60.0525 108.491 60.2864L107.28 60.871L109.444 61.5645C109.636 61.626 109.815 61.6219 109.98 61.5521C110.152 61.4843 110.299 61.3572 110.42 61.1707L110.587 60.9066L111.135 61.0822L110.463 63.0177L106.07 61.6099Z" fill="url(#paint13_radial_45_124)"/>
<path d="M116.017 63.566C115.783 63.4377 115.594 63.2819 115.45 63.0989C115.309 62.9101 115.239 62.6862 115.24 62.4273C115.247 62.1715 115.343 61.8755 115.528 61.5393C115.716 61.1974 115.914 60.9578 116.123 60.8204C116.341 60.6804 116.566 60.6222 116.798 60.6458C117.033 60.6636 117.267 60.7367 117.501 60.8651C117.729 60.9904 117.911 61.1458 118.046 61.3315C118.19 61.5146 118.262 61.7356 118.26 61.9945C118.268 62.2509 118.178 62.55 117.99 62.8919C117.805 63.2281 117.601 63.4646 117.377 63.6014C117.159 63.7413 116.933 63.8024 116.698 63.7845C116.472 63.7641 116.245 63.6913 116.017 63.566Z" fill="url(#paint14_radial_45_124)"/>
<path d="M120.783 69.2881C120.329 68.9087 120.063 68.4916 119.986 68.037C119.908 67.5824 119.982 67.098 120.209 66.5839C120.44 66.0739 120.787 65.542 121.25 64.9883C121.713 64.4345 122.173 64.0011 122.629 63.6879C123.091 63.3789 123.55 63.2247 124.007 63.2254C124.464 63.226 124.922 63.4182 125.381 63.8017C125.815 64.1645 126.071 64.5686 126.147 65.0141C126.229 65.4637 126.159 65.9477 125.938 66.466C125.721 66.9793 125.381 67.5128 124.918 68.0666C124.455 68.6203 123.988 69.0521 123.518 69.362C123.051 69.6668 122.587 69.8214 122.126 69.8257C121.665 69.83 121.217 69.6508 120.783 69.2881ZM121.19 68.8017C121.329 68.9184 121.483 68.9624 121.651 68.9335C121.829 68.9038 122.021 68.8104 122.229 68.6533C122.441 68.5005 122.674 68.2927 122.928 68.03C123.181 67.7673 123.458 67.4564 123.758 67.0972C124.058 66.738 124.313 66.4129 124.522 66.1218C124.741 65.8299 124.907 65.5659 125.019 65.3296C125.132 65.0934 125.185 64.8878 125.179 64.713C125.177 64.5423 125.109 64.4007 124.975 64.2881C124.835 64.1714 124.678 64.1254 124.505 64.1501C124.332 64.1748 124.139 64.2636 123.927 64.4165C123.714 64.5694 123.481 64.7771 123.228 65.0398C122.979 65.2975 122.704 65.606 122.404 65.9652C122.103 66.3244 121.847 66.652 121.633 66.948C121.419 67.2441 121.256 67.5102 121.144 67.7465C121.031 67.9827 120.973 68.1887 120.97 68.3643C120.977 68.5392 121.05 68.6849 121.19 68.8017Z" fill="url(#paint15_radial_45_124)"/>
<path d="M124.201 72.377L124.588 72.0349L124.769 72.2396C124.868 72.3517 124.968 72.4408 125.07 72.507C125.176 72.5781 125.289 72.6082 125.41 72.5973C125.535 72.582 125.673 72.5077 125.825 72.3743L126.27 71.9806L124.483 69.9555L124.928 69.5617L130.176 68.6237L131.073 69.6399L127.695 72.622L128.367 73.3823L127.884 73.8083L127.213 73.048L126.767 73.4417C126.616 73.5751 126.525 73.703 126.494 73.8255C126.469 73.9437 126.484 74.0598 126.542 74.1739C126.599 74.288 126.675 74.3987 126.77 74.5059L126.854 74.601L126.466 74.9431L124.201 72.377ZM125.417 70.0412L126.753 71.5546L128.032 70.425C128.14 70.3303 128.252 70.2314 128.369 70.1281C128.49 70.0297 128.609 69.9288 128.726 69.8256C128.852 69.7229 128.978 69.6202 129.105 69.5175C129.235 69.4196 129.361 69.3261 129.481 69.2369C129.401 69.2641 129.289 69.294 129.144 69.3265C129.004 69.3638 128.849 69.4002 128.681 69.4359C128.522 69.472 128.373 69.5042 128.233 69.5323C128.093 69.5605 127.988 69.5793 127.919 69.5888L125.417 70.0412Z" fill="url(#paint16_radial_45_124)"/>
<path d="M130.807 78.0921C130.672 77.8623 130.589 77.6318 130.559 77.4007C130.534 77.1663 130.589 76.9382 130.723 76.7164C130.86 76.5003 131.093 76.295 131.424 76.1007C131.761 75.9031 132.054 75.7988 132.304 75.7877C132.562 75.779 132.785 75.8441 132.972 75.9829C133.165 76.1185 133.329 76.3013 133.464 76.5311C133.596 76.7553 133.672 76.9819 133.694 77.2106C133.724 77.4417 133.672 77.6682 133.538 77.89C133.414 78.114 133.183 78.3249 132.847 78.5225C132.516 78.7168 132.22 78.8155 131.958 78.8187C131.699 78.8274 131.473 78.764 131.28 78.6284C131.096 78.4951 130.939 78.3163 130.807 78.0921Z" fill="url(#paint17_radial_45_124)"/>
<path d="M131.298 83.1061L131.788 82.9405L131.919 83.3286C131.948 83.4148 131.987 83.4876 132.034 83.5471C132.084 83.6126 132.156 83.6534 132.251 83.6695C132.345 83.6855 132.473 83.6665 132.633 83.6123L137.132 82.0911C137.298 82.0349 137.414 81.9717 137.48 81.9015C137.545 81.8313 137.578 81.7551 137.578 81.6729C137.579 81.5968 137.566 81.5157 137.536 81.4294L137.405 81.0414L137.895 80.8759L138.901 83.8507C139.098 84.4359 139.195 84.9351 139.191 85.3483C139.188 85.7678 139.088 86.1105 138.89 86.3766C138.698 86.6406 138.417 86.8351 138.047 86.96C137.721 87.0704 137.423 87.1025 137.153 87.0564C136.884 87.0102 136.643 86.9167 136.431 86.7757C136.218 86.6348 136.033 86.4742 135.876 86.2939L134.354 88.0337C134.246 88.1595 134.155 88.2761 134.081 88.3833C134.014 88.4885 133.961 88.5853 133.922 88.6739C133.885 88.7686 133.865 88.8613 133.862 88.9517C133.864 89.0401 133.88 89.1274 133.909 89.2137L133.921 89.2506L133.432 89.4162L133.329 89.1113C133.235 88.8341 133.162 88.5877 133.11 88.3721C133.066 88.1605 133.045 87.9683 133.049 87.7956C133.06 87.627 133.102 87.4654 133.173 87.3109C133.244 87.1564 133.351 87.0038 133.492 86.8531L135.153 85.0665L134.946 84.4567L133.126 85.0721C132.966 85.1262 132.853 85.1884 132.788 85.2586C132.722 85.3287 132.69 85.405 132.69 85.4872C132.691 85.5694 132.704 85.6506 132.731 85.7307L132.866 86.1279L132.376 86.2935L131.298 83.1061ZM135.657 84.7929C135.753 85.0762 135.877 85.2813 136.03 85.4081C136.191 85.539 136.381 85.605 136.601 85.6062C136.827 85.6052 137.091 85.5537 137.393 85.4516C137.707 85.3454 137.944 85.2242 138.104 85.0878C138.27 84.9493 138.368 84.7823 138.398 84.5869C138.428 84.3914 138.396 84.1551 138.302 83.878L138.134 83.3791L135.482 84.2755L135.657 84.7929Z" fill="url(#paint18_radial_45_124)"/>
<path d="M133.327 89.3387L133.838 89.2599L133.9 89.6647C133.914 89.7546 133.939 89.833 133.976 89.8997C134.014 89.9728 134.078 90.0254 134.168 90.0575C134.259 90.0896 134.387 90.0928 134.554 90.067L139.21 89.3483C139.396 89.3195 139.527 89.2762 139.604 89.2183C139.688 89.1658 139.737 89.0991 139.751 89.018C139.772 88.9424 139.775 88.8564 139.76 88.76L139.698 88.3552L140.209 88.2763L141.034 93.6256L139.267 93.9379L139.163 93.2632L139.608 93.1451C139.767 93.1075 139.894 93.055 139.989 92.9877C140.091 92.9259 140.165 92.8487 140.209 92.7563C140.254 92.6638 140.266 92.5501 140.246 92.4152L139.996 90.7959L137.586 91.1679L137.939 93.4522L137.36 93.5415L137.008 91.2572L134.29 91.6768L134.587 93.6045C134.607 93.733 134.656 93.8341 134.733 93.9077C134.81 93.9813 134.907 94.0322 135.023 94.0603C135.14 94.0948 135.271 94.1108 135.415 94.1083L135.88 94.1154L135.983 94.7805L134.199 94.9868L133.327 89.3387Z" fill="url(#paint19_radial_45_124)"/>
<path d="M134.248 95.5016L134.765 95.5144L134.755 95.9238C134.752 96.0148 134.763 96.0964 134.788 96.1685C134.812 96.2472 134.866 96.3103 134.949 96.3579C135.032 96.4055 135.158 96.4313 135.327 96.4355L140.075 96.5529C140.251 96.5573 140.381 96.5377 140.467 96.4943C140.553 96.4509 140.61 96.3905 140.637 96.3132C140.665 96.2423 140.68 96.1614 140.682 96.0704L140.693 95.6609L141.209 95.6737L141.126 99.0373L140.609 99.0245L140.62 98.615C140.622 98.524 140.608 98.4391 140.577 98.3603C140.553 98.2817 140.496 98.2185 140.406 98.1708C140.323 98.1232 140.187 98.097 139.998 98.0924L137.727 98.0362L139.337 99.5881C139.483 99.7348 139.61 99.8485 139.719 99.9293C139.834 100.01 139.937 100.068 140.027 100.103C140.123 100.144 140.217 100.166 140.308 100.168C140.379 100.17 140.435 100.152 140.475 100.114C140.521 100.082 140.552 100.028 140.567 99.9502C140.588 99.8727 140.601 99.7657 140.604 99.6292L141.111 99.6418L141.046 102.284L140.539 102.271C140.543 102.096 140.512 101.929 140.444 101.771C140.376 101.614 140.279 101.458 140.153 101.306C140.027 101.16 139.881 101.006 139.716 100.846L138.334 99.5243L135.413 101.267C135.261 101.36 135.132 101.448 135.026 101.53C134.926 101.619 134.843 101.705 134.776 101.787C134.715 101.877 134.67 101.967 134.642 102.057C134.614 102.154 134.598 102.255 134.596 102.359L134.595 102.398L134.078 102.385L134.091 101.858C134.1 101.488 134.124 101.183 134.162 100.943C134.207 100.704 134.267 100.507 134.343 100.352C134.425 100.205 134.522 100.084 134.635 99.9889C134.748 99.8941 134.883 99.8032 135.041 99.7161L137.316 98.4553L136.986 98.0179L135.338 97.9772C135.156 97.9727 135.019 97.992 134.927 98.0353C134.835 98.0785 134.772 98.1387 134.737 98.2159C134.709 98.2933 134.694 98.3775 134.692 98.4685L134.682 98.8779L134.165 98.8652L134.248 95.5016Z" fill="url(#paint20_radial_45_124)"/>
<path d="M133.424 104.698C133.505 104.27 133.612 103.919 133.743 103.646C133.881 103.375 134.03 103.165 134.19 103.017C134.357 102.87 134.528 102.773 134.702 102.727C134.875 102.687 135.039 102.682 135.192 102.711C135.409 102.752 135.572 102.836 135.68 102.963C135.795 103.091 135.865 103.243 135.891 103.42C135.917 103.597 135.912 103.778 135.877 103.963C135.513 103.894 135.196 103.89 134.926 103.951C134.661 104.02 134.446 104.141 134.281 104.315C134.122 104.49 134.018 104.705 133.969 104.96C133.898 105.337 133.941 105.647 134.1 105.889C134.258 106.137 134.484 106.289 134.778 106.345C134.995 106.387 135.192 106.361 135.368 106.269C135.55 106.184 135.727 106.036 135.9 105.824C136.079 105.613 136.276 105.343 136.491 105.013C136.688 104.707 136.882 104.453 137.073 104.251C137.264 104.049 137.455 103.893 137.648 103.784C137.847 103.677 138.049 103.609 138.253 103.582C138.462 103.562 138.684 103.574 138.92 103.619C139.31 103.694 139.629 103.86 139.878 104.119C140.126 104.378 140.297 104.699 140.39 105.081C140.481 105.469 140.484 105.886 140.399 106.333C140.309 106.806 140.185 107.183 140.025 107.463C139.872 107.745 139.7 107.941 139.507 108.05C139.313 108.165 139.11 108.202 138.9 108.162C138.676 108.12 138.506 107.985 138.391 107.758C138.274 107.537 138.253 107.229 138.329 106.833C138.507 106.867 138.706 106.868 138.924 106.837C139.14 106.812 139.336 106.74 139.511 106.621C139.686 106.502 139.797 106.318 139.844 106.069C139.877 105.896 139.872 105.73 139.83 105.57C139.793 105.417 139.716 105.283 139.599 105.168C139.487 105.061 139.335 104.989 139.143 104.952C138.964 104.918 138.79 104.928 138.621 104.982C138.452 105.036 138.269 105.163 138.072 105.364C137.881 105.566 137.659 105.865 137.405 106.26C137.143 106.666 136.89 106.986 136.647 107.217C136.404 107.449 136.15 107.603 135.884 107.678C135.625 107.754 135.339 107.762 135.026 107.703C134.617 107.625 134.274 107.447 133.996 107.169C133.723 106.899 133.534 106.552 133.429 106.128C133.325 105.705 133.323 105.228 133.424 104.698Z" fill="url(#paint21_radial_45_124)"/>
<path d="M133.064 107.397L133.549 107.575L133.509 107.685C133.469 107.795 133.451 107.899 133.457 107.998C133.462 108.097 133.498 108.197 133.565 108.297C133.636 108.406 133.75 108.528 133.909 108.663L138.563 112.625L138.103 113.879L132.008 113.814C131.815 113.812 131.657 113.827 131.535 113.858C131.416 113.898 131.321 113.95 131.249 114.013C131.182 114.085 131.13 114.17 131.094 114.268L131.033 114.433L130.548 114.255L131.657 111.233L132.142 111.411L132.011 111.768C131.977 111.86 131.972 111.958 131.996 112.064C132.019 112.17 132.095 112.246 132.223 112.293C132.272 112.311 132.323 112.323 132.377 112.328C132.428 112.34 132.477 112.348 132.524 112.351C132.571 112.355 132.612 112.356 132.647 112.355L133.681 112.371L134.497 110.146L133.807 109.591C133.763 109.561 133.713 109.526 133.659 109.485C133.605 109.444 133.546 109.406 133.483 109.369C133.427 109.334 133.374 109.308 133.325 109.29C133.209 109.247 133.105 109.258 133.013 109.321C132.92 109.384 132.855 109.467 132.817 109.571L132.676 109.955L132.191 109.777L133.064 107.397ZM134.985 110.543L134.306 112.392L135.986 112.458C136.142 112.467 136.308 112.476 136.485 112.485C136.668 112.497 136.849 112.512 137.03 112.529C137.21 112.547 137.377 112.563 137.531 112.578C137.442 112.518 137.347 112.448 137.244 112.369C137.148 112.292 137.045 112.213 136.937 112.132C136.834 112.052 136.73 111.969 136.623 111.882C136.521 111.802 136.424 111.725 136.334 111.651L134.985 110.543Z" fill="url(#paint22_radial_45_124)"/>
<path d="M127.668 118.628C127.975 118.193 128.303 117.871 128.649 117.662C128.997 117.462 129.352 117.37 129.715 117.387C130.078 117.413 130.438 117.552 130.794 117.804C131.107 118.025 131.316 118.264 131.421 118.521C131.527 118.788 131.569 119.067 131.544 119.361C131.526 119.658 131.478 119.962 131.401 120.274C131.668 120.256 131.905 120.253 132.113 120.264C132.325 120.278 132.521 120.317 132.699 120.38C132.883 120.446 133.063 120.541 133.238 120.665C133.472 120.83 133.635 121.033 133.728 121.273C133.817 121.519 133.825 121.795 133.751 122.102C133.683 122.412 133.526 122.743 133.278 123.093C133.038 123.433 132.786 123.677 132.522 123.825C132.26 123.982 132.005 124.056 131.756 124.048C131.507 124.039 131.279 123.962 131.072 123.815C130.86 123.665 130.703 123.487 130.602 123.28C130.503 123.083 130.451 122.847 130.446 122.573C130.437 122.304 130.466 121.986 130.534 121.62L128.453 121.929C128.616 122.092 128.784 122.243 128.957 122.381C129.13 122.519 129.291 122.641 129.44 122.746L129.79 122.993L128.558 124.738L128.136 124.439L128.226 124.312C128.308 124.195 128.376 124.072 128.428 123.941C128.482 123.82 128.501 123.691 128.487 123.553C128.469 123.421 128.395 123.273 128.264 123.109C128.141 122.967 128.016 122.806 127.887 122.628C127.764 122.453 127.645 122.266 127.532 122.066L126.14 122.278C126.05 122.293 125.966 122.322 125.889 122.363C125.818 122.408 125.748 122.466 125.682 122.539C125.615 122.611 125.547 122.695 125.48 122.79L125.429 122.862L125.007 122.564L126.121 120.986L127.091 120.848C127.057 120.625 127.05 120.393 127.069 120.152C127.088 119.91 127.146 119.66 127.241 119.401C127.338 119.151 127.48 118.894 127.668 118.628ZM128.061 119.204C127.862 119.486 127.738 119.757 127.69 120.017C127.647 120.281 127.657 120.531 127.721 120.767L130.741 120.346C130.74 120.122 130.704 119.925 130.633 119.756C130.567 119.59 130.473 119.44 130.353 119.307C130.233 119.183 130.091 119.063 129.927 118.946C129.767 118.834 129.602 118.753 129.43 118.703C129.26 118.662 129.092 118.651 128.928 118.67C128.763 118.689 128.606 118.742 128.458 118.828C128.306 118.92 128.173 119.045 128.061 119.204ZM131.128 121.539C131.098 121.852 131.132 122.102 131.23 122.291C131.329 122.488 131.501 122.673 131.745 122.846C131.873 122.936 131.995 122.999 132.113 123.034C132.237 123.074 132.356 123.074 132.471 123.036C132.585 122.998 132.695 122.904 132.8 122.755C132.928 122.575 132.958 122.397 132.89 122.222C132.819 122.052 132.688 121.9 132.497 121.765C132.375 121.679 132.245 121.615 132.107 121.573C131.974 121.535 131.831 121.513 131.676 121.507C131.517 121.507 131.335 121.517 131.128 121.539Z" fill="url(#paint23_radial_45_124)"/>
<path d="M123.143 124.37L123.475 124.766L123.161 125.029C123.091 125.088 123.037 125.15 122.999 125.216C122.956 125.286 122.944 125.368 122.964 125.462C122.983 125.556 123.047 125.668 123.156 125.797L126.205 129.438C126.318 129.573 126.419 129.658 126.508 129.693C126.597 129.729 126.68 129.732 126.757 129.702C126.828 129.676 126.899 129.633 126.969 129.575L127.283 129.312L127.614 129.708L125.207 131.725C124.734 132.121 124.303 132.392 123.917 132.538C123.525 132.688 123.169 132.719 122.849 132.631C122.534 132.548 122.251 132.356 122 132.057C121.779 131.793 121.641 131.527 121.586 131.259C121.531 130.991 121.531 130.733 121.585 130.484C121.64 130.235 121.722 130.004 121.833 129.793L119.66 129.005C119.503 128.95 119.362 128.907 119.235 128.878C119.112 128.853 119.003 128.839 118.906 128.835C118.805 128.835 118.711 128.85 118.626 128.879C118.544 128.913 118.468 128.96 118.399 129.018L118.369 129.043L118.037 128.647L118.284 128.44C118.508 128.253 118.711 128.095 118.893 127.968C119.074 127.85 119.246 127.762 119.408 127.702C119.569 127.652 119.735 127.632 119.905 127.642C120.075 127.653 120.255 127.696 120.447 127.773L122.715 128.673L123.208 128.259L121.974 126.787C121.866 126.657 121.767 126.574 121.678 126.539C121.589 126.503 121.506 126.501 121.429 126.531C121.353 126.561 121.282 126.603 121.217 126.657L120.896 126.927L120.564 126.53L123.143 124.37ZM123.152 129.044C122.923 129.236 122.777 129.426 122.714 129.614C122.651 129.812 122.658 130.013 122.737 130.219C122.82 130.429 122.964 130.656 123.168 130.901C123.381 131.155 123.58 131.332 123.765 131.431C123.955 131.535 124.146 131.566 124.339 131.523C124.532 131.48 124.74 131.365 124.965 131.177L125.368 130.839L123.571 128.693L123.152 129.044Z" fill="url(#paint24_radial_45_124)"/>
<path d="M118.066 128.523L118.326 128.97L117.972 129.176C117.893 129.221 117.829 129.274 117.78 129.332C117.726 129.394 117.7 129.472 117.703 129.568C117.707 129.664 117.751 129.785 117.836 129.932L120.203 134.004C120.298 134.167 120.386 134.274 120.468 134.324C120.547 134.383 120.627 134.404 120.708 134.387C120.786 134.379 120.867 134.351 120.952 134.302L121.306 134.096L121.566 134.543L116.886 137.263L115.951 135.732L116.541 135.388L116.813 135.76C116.906 135.894 117.001 135.993 117.099 136.057C117.193 136.13 117.292 136.17 117.395 136.178C117.497 136.186 117.607 136.156 117.725 136.087L119.142 135.264L117.916 133.156L115.918 134.318L115.624 133.812L117.622 132.65L116.24 130.272L114.554 131.253C114.441 131.318 114.365 131.4 114.325 131.499C114.284 131.597 114.272 131.706 114.288 131.824C114.299 131.946 114.332 132.074 114.387 132.207L114.55 132.643L113.968 132.981L113.125 131.395L118.066 128.523Z" fill="url(#paint25_radial_45_124)"/>
<path d="M110.454 132.327C110.86 132.168 111.213 132.072 111.514 132.038C111.817 132.009 112.074 132.024 112.285 132.081C112.498 132.144 112.671 132.237 112.803 132.36C112.929 132.485 113.02 132.62 113.077 132.766C113.158 132.972 113.173 133.154 113.124 133.313C113.077 133.478 112.985 133.619 112.849 133.735C112.713 133.851 112.557 133.943 112.382 134.012C112.247 133.667 112.081 133.397 111.886 133.201C111.687 133.014 111.47 132.896 111.235 132.849C111.002 132.807 110.764 132.834 110.522 132.929C110.165 133.069 109.927 133.27 109.806 133.534C109.68 133.8 109.671 134.072 109.781 134.351C109.861 134.556 109.988 134.709 110.159 134.81C110.328 134.918 110.548 134.989 110.819 135.023C111.093 135.062 111.426 135.085 111.82 135.091C112.185 135.095 112.503 135.124 112.776 135.178C113.048 135.232 113.282 135.311 113.477 135.416C113.674 135.528 113.838 135.662 113.97 135.82C114.098 135.986 114.206 136.182 114.294 136.406C114.438 136.775 114.467 137.134 114.38 137.482C114.293 137.83 114.113 138.145 113.839 138.427C113.559 138.711 113.208 138.936 112.784 139.102C112.336 139.278 111.951 139.373 111.628 139.388C111.308 139.408 111.051 139.366 110.856 139.261C110.655 139.158 110.515 139.007 110.437 138.807C110.354 138.595 110.378 138.38 110.509 138.161C110.633 137.944 110.883 137.763 111.259 137.616C111.325 137.785 111.43 137.954 111.572 138.121C111.709 138.291 111.874 138.419 112.067 138.503C112.261 138.588 112.476 138.584 112.712 138.492C112.876 138.427 113.014 138.335 113.127 138.214C113.237 138.101 113.309 137.965 113.344 137.804C113.375 137.652 113.355 137.486 113.284 137.304C113.218 137.134 113.116 136.992 112.981 136.878C112.845 136.764 112.64 136.676 112.365 136.616C112.093 136.563 111.722 136.533 111.252 136.529C110.768 136.523 110.363 136.479 110.038 136.397C109.712 136.315 109.447 136.182 109.242 135.997C109.039 135.818 108.88 135.58 108.763 135.283C108.612 134.896 108.579 134.51 108.667 134.127C108.75 133.752 108.943 133.408 109.246 133.094C109.549 132.779 109.952 132.524 110.454 132.327Z" fill="url(#paint26_radial_45_124)"/>
<path d="M106.55 133.741L106.662 134.245L106.263 134.335C106.168 134.356 106.088 134.387 106.024 134.428C105.955 134.477 105.911 134.55 105.893 134.647C105.868 134.746 105.876 134.884 105.916 135.062L107.056 140.154L107.817 139.983C108.007 139.94 108.15 139.879 108.245 139.797C108.342 139.722 108.404 139.629 108.432 139.516C108.46 139.403 108.468 139.274 108.456 139.131L108.39 138.526L109.028 138.383L109.394 140.24L103.465 141.567L103.004 139.732L103.641 139.589L103.84 140.164C103.884 140.301 103.946 140.413 104.026 140.502C104.099 140.592 104.196 140.651 104.315 140.677C104.435 140.71 104.591 140.705 104.781 140.663L105.543 140.492L104.403 135.401C104.363 135.223 104.314 135.094 104.256 135.014C104.192 134.935 104.118 134.888 104.035 134.874C103.953 134.865 103.868 134.871 103.779 134.891L103.379 134.98L103.266 134.476L106.55 133.741Z" fill="url(#paint27_radial_45_124)"/>
<path d="M101.797 134.68L101.843 135.195L101.435 135.231C101.338 135.24 101.255 135.26 101.186 135.292C101.111 135.332 101.058 135.398 101.027 135.493C100.99 135.587 100.98 135.725 100.996 135.907L101.407 140.55C101.424 140.738 101.458 140.872 101.511 140.952C101.558 141.039 101.622 141.092 101.702 141.111C101.776 141.137 101.861 141.146 101.958 141.138L102.366 141.101L102.412 141.616L99.0606 141.913L99.015 141.398L99.423 141.362C99.5136 141.354 99.5964 141.331 99.6712 141.291C99.7467 141.259 99.803 141.195 99.8403 141.1C99.8717 141.012 99.8791 140.875 99.8624 140.687L99.451 136.043C99.4349 135.862 99.4035 135.728 99.3566 135.641C99.3032 135.554 99.2362 135.498 99.1556 135.472C99.0756 135.453 98.9903 135.448 98.8996 135.456L98.4916 135.492L98.446 134.977L101.797 134.68Z" fill="url(#paint28_radial_45_124)"/>
<path d="M93.7371 136.753C94.0029 136.774 94.2391 136.838 94.4458 136.946C94.652 137.06 94.8076 137.235 94.9128 137.472C95.0115 137.708 95.0457 138.017 95.0154 138.4C94.9846 138.789 94.9021 139.089 94.768 139.3C94.6269 139.517 94.4458 139.662 94.2247 139.736C94.0031 139.816 93.7595 139.846 93.4937 139.825C93.2345 139.804 93.005 139.737 92.8053 139.624C92.5986 139.516 92.4427 139.344 92.3375 139.107C92.2253 138.876 92.1846 138.567 92.2154 138.178C92.2457 137.795 92.3347 137.496 92.4823 137.279C92.6234 137.062 92.8048 136.914 93.0263 136.833C93.2409 136.759 93.4779 136.732 93.7371 136.753Z" fill="url(#paint29_radial_45_124)"/>
<path d="M89.3113 134.231L89.0422 135.199L87.2571 136.231C86.8871 136.446 86.575 136.646 86.3209 136.831C86.0651 137.024 85.8543 137.211 85.6886 137.395C85.5229 137.578 85.3885 137.77 85.2855 137.971C85.1824 138.172 85.0969 138.394 85.029 138.638C84.9628 138.876 84.9401 139.079 84.961 139.247C84.9738 139.419 85.027 139.556 85.1206 139.656C85.2062 139.761 85.3241 139.834 85.4745 139.876C85.6875 139.935 85.874 139.919 86.0341 139.829C86.1925 139.745 86.3338 139.588 86.4581 139.36C86.5807 139.137 86.6916 138.848 86.7909 138.491C87.0289 138.557 87.2301 138.646 87.3943 138.76C87.5585 138.873 87.6725 139.009 87.7361 139.168C87.7981 139.334 87.7977 139.53 87.735 139.755C87.6723 139.981 87.5387 140.17 87.3344 140.322C87.1238 140.473 86.8494 140.562 86.5111 140.589C86.1711 140.623 85.7724 140.576 85.3151 140.449C84.8453 140.318 84.4681 140.146 84.1835 139.932C83.8988 139.718 83.7073 139.472 83.6089 139.195C83.5105 138.918 83.5065 138.617 83.5971 138.291C83.6459 138.116 83.7188 137.95 83.816 137.795C83.9113 137.646 84.0407 137.497 84.2039 137.346C84.3609 137.194 84.5639 137.035 84.8128 136.868C85.0536 136.705 85.3502 136.524 85.7024 136.325C86.0547 136.126 86.4684 135.901 86.9435 135.648L88.1313 135.017L85.942 134.408C85.7478 134.354 85.5693 134.365 85.4064 134.441C85.2372 134.516 85.0957 134.649 84.9819 134.84L84.8257 135.11L84.2713 134.956L84.867 132.996L89.3113 134.231Z" fill="url(#paint30_radial_45_124)"/>
<path d="M81.8122 131.616C82.3523 131.857 82.7217 132.186 82.9202 132.602C83.1187 133.019 83.1792 133.505 83.1015 134.061C83.0179 134.615 82.8288 135.221 82.5344 135.88C82.24 136.539 81.9158 137.081 81.5617 137.507C81.2018 137.93 80.8018 138.204 80.3619 138.328C79.922 138.451 79.429 138.391 78.8829 138.147C78.3665 137.917 78.0106 137.597 77.8154 137.19C77.6142 136.779 77.5495 136.295 77.6212 135.736C77.6903 135.183 77.8721 134.577 78.1665 133.918C78.4609 133.259 78.7924 132.716 79.161 132.29C79.5269 131.869 79.9311 131.594 80.3737 131.464C80.8162 131.334 81.2957 131.385 81.8122 131.616ZM81.5535 132.194C81.3873 132.12 81.2272 132.12 81.0733 132.194C80.9107 132.27 80.751 132.413 80.5942 132.62C80.4313 132.825 80.2638 133.089 80.0915 133.411C79.9192 133.732 79.7376 134.107 79.5466 134.534C79.3557 134.962 79.1991 135.344 79.077 135.681C78.9462 136.021 78.8588 136.321 78.8147 136.579C78.7706 136.837 78.7755 137.049 78.8293 137.215C78.8772 137.379 78.9812 137.497 79.1415 137.569C79.3077 137.643 79.4708 137.644 79.6307 137.573C79.7906 137.502 79.9519 137.365 80.1147 137.16C80.2775 136.955 80.4451 136.691 80.6174 136.369C80.787 136.053 80.9673 135.682 81.1583 135.254C81.3492 134.827 81.5071 134.442 81.6319 134.099C81.7567 133.756 81.8412 133.455 81.8852 133.197C81.9293 132.939 81.9288 132.725 81.8835 132.556C81.8297 132.389 81.7197 132.269 81.5535 132.194Z" fill="url(#paint31_radial_45_124)"/>
<path d="M78.8911 130.352L78.3491 131.198L76.3394 131.659C75.9227 131.755 75.5656 131.854 75.2681 131.957C74.967 132.065 74.7104 132.183 74.498 132.309C74.2857 132.436 74.1008 132.58 73.9432 132.741C73.7856 132.903 73.6384 133.09 73.5016 133.304C73.3683 133.512 73.287 133.699 73.2575 133.866C73.2191 134.034 73.2299 134.18 73.2898 134.303C73.3408 134.429 73.432 134.533 73.5633 134.618C73.7495 134.737 73.9324 134.777 74.112 134.737C74.2881 134.704 74.4692 134.596 74.6553 134.414C74.8379 134.237 75.0291 133.993 75.229 133.681C75.4371 133.814 75.6029 133.959 75.7266 134.116C75.8503 134.272 75.9191 134.436 75.933 134.607C75.9434 134.783 75.8855 134.97 75.7592 135.167C75.633 135.364 75.4498 135.506 75.2096 135.591C74.964 135.673 74.6755 135.678 74.3442 135.604C74.0093 135.536 73.642 135.374 73.2424 135.118C72.8318 134.855 72.522 134.58 72.313 134.291C72.1039 134.003 71.9931 133.712 71.9806 133.418C71.968 133.124 72.053 132.835 72.2354 132.55C72.3336 132.397 72.4519 132.261 72.5904 132.141C72.7254 132.027 72.8931 131.922 73.0933 131.826C73.2881 131.727 73.529 131.634 73.816 131.548C74.094 131.463 74.4306 131.378 74.8258 131.291C75.221 131.205 75.6828 131.111 76.2112 131.009L77.5322 130.755L75.6189 129.529C75.4492 129.421 75.2753 129.379 75.0972 129.404C74.9137 129.425 74.7394 129.51 74.5743 129.659L74.3455 129.872L73.8611 129.561L75.007 127.863L78.8911 130.352Z" fill="url(#paint32_radial_45_124)"/>
<path d="M72.7568 125.871C73.1233 126.192 73.38 126.491 73.527 126.767C73.6697 127.048 73.732 127.298 73.714 127.515C73.6916 127.738 73.6139 127.925 73.481 128.076C73.3309 128.247 73.1656 128.327 72.9852 128.316C72.8048 128.305 72.6266 128.222 72.4507 128.068C72.5708 127.931 72.6665 127.772 72.7377 127.593C72.804 127.409 72.8171 127.221 72.7771 127.03C72.737 126.84 72.6168 126.656 72.4164 126.48C72.2552 126.339 72.0761 126.242 71.8793 126.19C71.6781 126.144 71.4609 126.169 71.2278 126.267C70.9946 126.366 70.7472 126.564 70.4856 126.862C70.2711 127.106 70.1322 127.343 70.0689 127.573C70.0055 127.803 70.0153 128.023 70.0981 128.235C70.1761 128.441 70.3202 128.637 70.5303 128.821C70.6524 128.929 70.7688 129.018 70.8794 129.089C70.9808 129.161 71.0792 129.221 71.1745 129.27C71.2699 129.319 71.3649 129.364 71.4597 129.404L71.681 129.832L69.2206 132.162L66.4499 129.73L67.5841 128.364L68.0019 128.73L67.8418 129.031C67.805 129.103 67.7817 129.169 67.7718 129.229C67.7528 129.29 67.7566 129.35 67.7835 129.408C67.806 129.471 67.8564 129.537 67.9345 129.606L69.4591 130.944L70.7666 129.691C70.6957 129.663 70.6098 129.618 70.509 129.555C70.4039 129.498 70.2957 129.429 70.1845 129.348C70.0684 129.264 69.9615 129.179 69.8638 129.093C69.4826 128.758 69.2043 128.41 69.0287 128.049C68.8439 127.687 68.7787 127.323 68.8331 126.956C68.8783 126.589 69.0553 126.229 69.3641 125.877C69.5871 125.623 69.8214 125.435 70.0668 125.313C70.3031 125.192 70.5426 125.121 70.7855 125.101C71.0241 125.085 71.2629 125.109 71.5019 125.172C71.7367 125.239 71.9595 125.335 72.1703 125.46C72.3854 125.579 72.5809 125.716 72.7568 125.871Z" fill="url(#paint33_radial_45_124)"/>
<path d="M65.8978 121.53C66.0605 121.741 66.1713 121.96 66.2301 122.185C66.2838 122.415 66.2582 122.648 66.1534 122.885C66.0446 123.116 65.8382 123.349 65.5344 123.583C65.2254 123.821 64.9476 123.962 64.701 124.004C64.4454 124.045 64.216 124.008 64.013 123.894C63.8048 123.783 63.6193 123.622 63.4566 123.411C63.2979 123.205 63.1936 122.99 63.1439 122.766C63.0851 122.54 63.1081 122.309 63.2129 122.072C63.3086 121.835 63.511 121.597 63.82 121.358C64.1239 121.124 64.4056 120.989 64.6652 120.953C64.9209 120.912 65.1528 120.947 65.361 121.057C65.5601 121.167 65.739 121.324 65.8978 121.53Z" fill="url(#paint34_radial_45_124)"/>
<circle cx="97.3756" cy="97.5152" r="53.5004" transform="rotate(30 97.3756 97.5152)" stroke="url(#paint35_radial_45_124)" stroke-width="7.86771"/>
<circle cx="97.3756" cy="97.5152" r="66.7399" transform="rotate(30 97.3756 97.5152)" stroke="url(#paint36_radial_45_124)" stroke-width="8.13901"/>
<path d="M62.9579 95.1903L64.1287 93.1623L65.7358 94.0901C66.093 94.2963 66.4413 94.4294 66.7808 94.4894C67.1458 94.5641 67.5134 94.4872 67.8834 94.2586C68.2534 94.0301 68.6299 93.5842 69.0128 92.921L79.7716 74.2863C80.1692 73.5975 80.3745 73.0358 80.3874 72.6011C80.4003 72.1664 80.2831 71.8096 80.0359 71.5308C79.8142 71.2668 79.5248 71.0317 79.1677 70.8255L77.5606 69.8976L78.7315 67.8696L91.0526 74.9832C93.476 76.3824 95.2983 77.7916 96.5196 79.211C97.7664 80.6451 98.4504 82.1114 98.5716 83.6099C98.7075 85.0829 98.3336 86.5847 97.45 88.1153C96.6694 89.4673 95.7515 90.4679 94.6964 91.1172C93.6413 91.7665 92.5416 92.169 91.3973 92.3246C90.2531 92.4803 89.1442 92.4863 88.0707 92.3427L88.0953 102.816C88.1029 103.568 88.1419 104.237 88.2124 104.822C88.2976 105.382 88.4069 105.87 88.5402 106.287C88.699 106.719 88.9074 107.094 89.1654 107.413C89.4381 107.707 89.753 107.956 90.1102 108.163L90.2632 108.251L89.0924 110.279L87.8296 109.55C86.6817 108.887 85.6962 108.267 84.873 107.69C84.0901 107.102 83.4461 106.509 82.9409 105.911C82.476 105.303 82.1337 104.629 81.9141 103.89C81.6945 103.151 81.5996 102.314 81.6294 101.379L81.9361 90.3315L79.4107 88.8734L75.0586 96.4115C74.6757 97.0747 74.4777 97.6237 74.4649 98.0584C74.452 98.4932 74.5691 98.8499 74.8163 99.1287C75.0635 99.4075 75.3529 99.6426 75.6845 99.834L77.3299 100.784L76.159 102.812L62.9579 95.1903ZM82.8348 87.8913C84.0082 88.5687 85.0444 88.8949 85.9433 88.8696C86.8824 88.8336 87.728 88.4885 88.4798 87.8342C89.2465 87.1544 89.9906 86.1895 90.7123 84.9395C91.4634 83.6385 91.9068 82.517 92.0426 81.575C92.193 80.6075 92.027 79.7463 91.5444 78.9915C91.0618 78.2368 90.2466 77.528 89.0986 76.8652L87.0324 75.6723L80.692 86.6541L82.8348 87.8913Z" fill="url(#paint37_radial_45_124)"/>
<path d="M116.661 126.196L117.832 124.168L116.225 123.24C115.868 123.034 115.578 122.799 115.357 122.535C115.11 122.256 114.992 121.899 115.005 121.464C115.018 121.03 115.216 120.481 115.599 119.818L126.358 101.183C126.755 100.494 127.139 100.035 127.509 99.8069C127.879 99.5784 128.247 99.5015 128.612 99.5762C128.951 99.6362 129.3 99.7692 129.657 99.9754L131.264 100.903L132.435 98.8753L120.114 91.7617C117.69 90.3625 115.559 89.489 113.719 89.141C111.854 88.7783 110.242 88.9191 108.883 89.5634C107.54 90.1822 106.426 91.2568 105.542 92.7874C104.762 94.1394 104.354 95.4346 104.319 96.673C104.285 97.9114 104.486 99.065 104.923 100.134C105.361 101.203 105.91 102.166 106.571 103.024L97.4887 108.239C96.833 108.609 96.2343 108.909 95.6926 109.141C95.1655 109.347 94.6881 109.496 94.2602 109.589C93.8068 109.668 93.3775 109.675 92.9722 109.611C92.5817 109.522 92.2078 109.374 91.8507 109.168L91.6977 109.079L90.5268 111.107L91.7895 111.836C92.9374 112.499 93.9672 113.042 94.8787 113.467C95.7794 113.851 96.6149 114.112 97.3852 114.251C98.1447 114.349 98.8993 114.308 99.6491 114.129C100.399 113.95 101.171 113.613 101.966 113.12L111.38 107.331L113.905 108.789L109.553 116.327C109.17 116.99 108.794 117.436 108.424 117.665C108.054 117.893 107.686 117.97 107.321 117.895C106.956 117.821 106.608 117.688 106.276 117.496L104.631 116.546L103.46 118.574L116.661 126.196ZM113.044 105.332C111.871 104.655 111.07 103.921 110.642 103.13C110.204 102.298 110.08 101.394 110.271 100.415C110.476 99.4114 110.94 98.2845 111.661 97.0345C112.413 95.7336 113.162 94.7888 113.91 94.2002C114.673 93.5862 115.502 93.2994 116.397 93.3399C117.291 93.3804 118.313 93.7321 119.461 94.3948L121.527 95.5878L115.187 106.57L113.044 105.332Z" fill="url(#paint38_radial_45_124)"/>
</g>
</g>
<defs>
<radialGradient id="paint0_radial_45_124" cx="0" cy="0" r="1" gradientUnits="userSpaceOnUse" gradientTransform="translate(59.5033 115.165) rotate(-24.9734) scale(4.87626 3.19858)">
<stop stop-color="#103CC4" stop-opacity="0.8"/>
<stop offset="0.565" stop-color="#103CC4" stop-opacity="0.65"/>
<stop offset="0.785" stop-color="#103CC4" stop-opacity="0.2"/>
<stop offset="1" stop-color="#103CC4" stop-opacity="0.8"/>
</radialGradient>
<radialGradient id="paint1_radial_45_124" cx="0" cy="0" r="1" gradientUnits="userSpaceOnUse" gradientTransform="translate(57.0816 108.537) rotate(-15.1532) scale(4.87626 3.03767)">
<stop stop-color="#103CC4" stop-opacity="0.8"/>
<stop offset="0.565" stop-color="#103CC4" stop-opacity="0.65"/>
<stop offset="0.785" stop-color="#103CC4" stop-opacity="0.2"/>
<stop offset="1" stop-color="#103CC4" stop-opacity="0.8"/>
</radialGradient>
<radialGradient id="paint2_radial_45_124" cx="0" cy="0" r="1" gradientUnits="userSpaceOnUse" gradientTransform="translate(55.8065 101.338) rotate(-4.93861) scale(4.87626 3.41362)">
<stop stop-color="#103CC4" stop-opacity="0.8"/>
<stop offset="0.565" stop-color="#103CC4" stop-opacity="0.65"/>
<stop offset="0.785" stop-color="#103CC4" stop-opacity="0.2"/>
<stop offset="1" stop-color="#103CC4" stop-opacity="0.8"/>
</radialGradient>
<radialGradient id="paint3_radial_45_124" cx="0" cy="0" r="1" gradientUnits="userSpaceOnUse" gradientTransform="translate(55.779 94.5741) rotate(4.46195) scale(4.87626 2.55495)">
<stop stop-color="#103CC4" stop-opacity="0.8"/>
<stop offset="0.565" stop-color="#103CC4" stop-opacity="0.65"/>
<stop offset="0.785" stop-color="#103CC4" stop-opacity="0.2"/>
<stop offset="1" stop-color="#103CC4" stop-opacity="0.8"/>
</radialGradient>
<radialGradient id="paint4_radial_45_124" cx="0" cy="0" r="1" gradientUnits="userSpaceOnUse" gradientTransform="translate(56.8606 87.867) rotate(13.8536) scale(4.87626 3.43768)">
<stop stop-color="#103CC4" stop-opacity="0.8"/>
<stop offset="0.565" stop-color="#103CC4" stop-opacity="0.65"/>
<stop offset="0.785" stop-color="#103CC4" stop-opacity="0.2"/>
<stop offset="1" stop-color="#103CC4" stop-opacity="0.8"/>
</radialGradient>
<radialGradient id="paint5_radial_45_124" cx="0" cy="0" r="1" gradientUnits="userSpaceOnUse" gradientTransform="translate(60.8107 77.7666) rotate(28.8806) scale(4.87626 3.61813)">
<stop stop-color="#103CC4" stop-opacity="0.8"/>
<stop offset="0.565" stop-color="#103CC4" stop-opacity="0.65"/>
<stop offset="0.785" stop-color="#103CC4" stop-opacity="0.2"/>
<stop offset="1" stop-color="#103CC4" stop-opacity="0.8"/>
</radialGradient>
<radialGradient id="paint6_radial_45_124" cx="0" cy="0" r="1" gradientUnits="userSpaceOnUse" gradientTransform="translate(67.0705 69.2333) rotate(43.6634) scale(4.87626 3.19857)">
<stop stop-color="#103CC4" stop-opacity="0.8"/>
<stop offset="0.565" stop-color="#103CC4" stop-opacity="0.65"/>
<stop offset="0.785" stop-color="#103CC4" stop-opacity="0.2"/>
<stop offset="1" stop-color="#103CC4" stop-opacity="0.8"/>
</radialGradient>
<radialGradient id="paint7_radial_45_124" cx="0" cy="0" r="1" gradientUnits="userSpaceOnUse" gradientTransform="translate(72.3666 64.5628) rotate(53.5058) scale(4.87626 3.03767)">
<stop stop-color="#103CC4" stop-opacity="0.8"/>
<stop offset="0.565" stop-color="#103CC4" stop-opacity="0.65"/>
<stop offset="0.785" stop-color="#103CC4" stop-opacity="0.2"/>
<stop offset="1" stop-color="#103CC4" stop-opacity="0.8"/>
</radialGradient>
<radialGradient id="paint8_radial_45_124" cx="0" cy="0" r="1" gradientUnits="userSpaceOnUse" gradientTransform="translate(77.7903 61.1621) rotate(62.2931) scale(4.87626 2.55495)">
<stop stop-color="#103CC4" stop-opacity="0.8"/>
<stop offset="0.565" stop-color="#103CC4" stop-opacity="0.65"/>
<stop offset="0.785" stop-color="#103CC4" stop-opacity="0.2"/>
<stop offset="1" stop-color="#103CC4" stop-opacity="0.8"/>
</radialGradient>
<radialGradient id="paint9_radial_45_124" cx="0" cy="0" r="1" gradientUnits="userSpaceOnUse" gradientTransform="translate(83.5452 58.6743) rotate(70.9746) scale(4.87626 2.98955)">
<stop stop-color="#103CC4" stop-opacity="0.8"/>
<stop offset="0.565" stop-color="#103CC4" stop-opacity="0.65"/>
<stop offset="0.785" stop-color="#103CC4" stop-opacity="0.2"/>
<stop offset="1" stop-color="#103CC4" stop-opacity="0.8"/>
</radialGradient>
<radialGradient id="paint10_radial_45_124" cx="0" cy="0" r="1" gradientUnits="userSpaceOnUse" gradientTransform="translate(88.7963 57.2448) rotate(78.574) scale(4.87626 1.78952)">
<stop stop-color="#103CC4" stop-opacity="0.8"/>
<stop offset="0.565" stop-color="#103CC4" stop-opacity="0.65"/>
<stop offset="0.785" stop-color="#103CC4" stop-opacity="0.2"/>
<stop offset="1" stop-color="#103CC4" stop-opacity="0.8"/>
</radialGradient>
<radialGradient id="paint11_radial_45_124" cx="0" cy="0" r="1" gradientUnits="userSpaceOnUse" gradientTransform="translate(95.6536 56.4507) rotate(88.2055) scale(4.87626 1.76546)">
<stop stop-color="#103CC4" stop-opacity="0.8"/>
<stop offset="0.565" stop-color="#103CC4" stop-opacity="0.65"/>
<stop offset="0.785" stop-color="#103CC4" stop-opacity="0.2"/>
<stop offset="1" stop-color="#103CC4" stop-opacity="0.8"/>
</radialGradient>
<radialGradient id="paint12_radial_45_124" cx="0" cy="0" r="1" gradientUnits="userSpaceOnUse" gradientTransform="translate(103.595 56.9684) rotate(99.2417) scale(4.87626 2.72638)">
<stop stop-color="#103CC4" stop-opacity="0.8"/>
<stop offset="0.565" stop-color="#103CC4" stop-opacity="0.65"/>
<stop offset="0.785" stop-color="#103CC4" stop-opacity="0.2"/>
<stop offset="1" stop-color="#103CC4" stop-opacity="0.8"/>
</radialGradient>
<radialGradient id="paint13_radial_45_124" cx="0" cy="0" r="1" gradientUnits="userSpaceOnUse" gradientTransform="translate(109.6 58.4107) rotate(107.769) scale(4.87626 2.72639)">
<stop stop-color="#103CC4" stop-opacity="0.8"/>
<stop offset="0.565" stop-color="#103CC4" stop-opacity="0.65"/>
<stop offset="0.785" stop-color="#103CC4" stop-opacity="0.2"/>
<stop offset="1" stop-color="#103CC4" stop-opacity="0.8"/>
</radialGradient>
<radialGradient id="paint14_radial_45_124" cx="0" cy="0" r="1" gradientUnits="userSpaceOnUse" gradientTransform="translate(116.911 61.5552) rotate(118.787) scale(4.87626 1.76546)">
<stop stop-color="#103CC4" stop-opacity="0.8"/>
<stop offset="0.565" stop-color="#103CC4" stop-opacity="0.65"/>
<stop offset="0.785" stop-color="#103CC4" stop-opacity="0.2"/>
<stop offset="1" stop-color="#103CC4" stop-opacity="0.8"/>
</radialGradient>
<radialGradient id="paint15_radial_45_124" cx="0" cy="0" r="1" gradientUnits="userSpaceOnUse" gradientTransform="translate(123.487 66.0464) rotate(129.888) scale(4.87626 2.72639)">
<stop stop-color="#103CC4" stop-opacity="0.8"/>
<stop offset="0.565" stop-color="#103CC4" stop-opacity="0.65"/>
<stop offset="0.785" stop-color="#103CC4" stop-opacity="0.2"/>
<stop offset="1" stop-color="#103CC4" stop-opacity="0.8"/>
</radialGradient>
<radialGradient id="paint16_radial_45_124" cx="0" cy="0" r="1" gradientUnits="userSpaceOnUse" gradientTransform="translate(127.935 70.3755) rotate(138.559) scale(4.87626 2.72639)">
<stop stop-color="#103CC4" stop-opacity="0.8"/>
<stop offset="0.565" stop-color="#103CC4" stop-opacity="0.65"/>
<stop offset="0.785" stop-color="#103CC4" stop-opacity="0.2"/>
<stop offset="1" stop-color="#103CC4" stop-opacity="0.8"/>
</radialGradient>
<radialGradient id="paint17_radial_45_124" cx="0" cy="0" r="1" gradientUnits="userSpaceOnUse" gradientTransform="translate(132.604 76.8219) rotate(149.567) scale(4.87626 1.76546)">
<stop stop-color="#103CC4" stop-opacity="0.8"/>
<stop offset="0.565" stop-color="#103CC4" stop-opacity="0.65"/>
<stop offset="0.785" stop-color="#103CC4" stop-opacity="0.2"/>
<stop offset="1" stop-color="#103CC4" stop-opacity="0.8"/>
</radialGradient>
<radialGradient id="paint18_radial_45_124" cx="0" cy="0" r="1" gradientUnits="userSpaceOnUse" gradientTransform="translate(136.142 84.5567) rotate(161.32) scale(4.87626 3.19858)">
<stop stop-color="#103CC4" stop-opacity="0.8"/>
<stop offset="0.565" stop-color="#103CC4" stop-opacity="0.65"/>
<stop offset="0.785" stop-color="#103CC4" stop-opacity="0.2"/>
<stop offset="1" stop-color="#103CC4" stop-opacity="0.8"/>
</radialGradient>
<radialGradient id="paint19_radial_45_124" cx="0" cy="0" r="1" gradientUnits="userSpaceOnUse" gradientTransform="translate(137.824 91.4418) rotate(171.224) scale(4.87626 3.03767)">
<stop stop-color="#103CC4" stop-opacity="0.8"/>
<stop offset="0.565" stop-color="#103CC4" stop-opacity="0.65"/>
<stop offset="0.785" stop-color="#103CC4" stop-opacity="0.2"/>
<stop offset="1" stop-color="#103CC4" stop-opacity="0.8"/>
</radialGradient>
<radialGradient id="paint20_radial_45_124" cx="0" cy="0" r="1" gradientUnits="userSpaceOnUse" gradientTransform="translate(138.293 98.7431) rotate(-178.584) scale(4.87626 3.41362)">
<stop stop-color="#103CC4" stop-opacity="0.8"/>
<stop offset="0.565" stop-color="#103CC4" stop-opacity="0.65"/>
<stop offset="0.785" stop-color="#103CC4" stop-opacity="0.2"/>
<stop offset="1" stop-color="#103CC4" stop-opacity="0.8"/>
</radialGradient>
<radialGradient id="paint21_radial_45_124" cx="0" cy="0" r="1" gradientUnits="userSpaceOnUse" gradientTransform="translate(137.574 105.468) rotate(-169.222) scale(4.87626 2.55495)">
<stop stop-color="#103CC4" stop-opacity="0.8"/>
<stop offset="0.565" stop-color="#103CC4" stop-opacity="0.65"/>
<stop offset="0.785" stop-color="#103CC4" stop-opacity="0.2"/>
<stop offset="1" stop-color="#103CC4" stop-opacity="0.8"/>
</radialGradient>
<radialGradient id="paint22_radial_45_124" cx="0" cy="0" r="1" gradientUnits="userSpaceOnUse" gradientTransform="translate(135.765 112.008) rotate(-159.851) scale(4.87626 3.43768)">
<stop stop-color="#103CC4" stop-opacity="0.8"/>
<stop offset="0.565" stop-color="#103CC4" stop-opacity="0.65"/>
<stop offset="0.785" stop-color="#103CC4" stop-opacity="0.2"/>
<stop offset="1" stop-color="#103CC4" stop-opacity="0.8"/>
</radialGradient>
<radialGradient id="paint23_radial_45_124" cx="0" cy="0" r="1" gradientUnits="userSpaceOnUse" gradientTransform="translate(130.722 121.621) rotate(-144.761) scale(4.87626 3.61814)">
<stop stop-color="#103CC4" stop-opacity="0.8"/>
<stop offset="0.565" stop-color="#103CC4" stop-opacity="0.65"/>
<stop offset="0.785" stop-color="#103CC4" stop-opacity="0.2"/>
<stop offset="1" stop-color="#103CC4" stop-opacity="0.8"/>
</radialGradient>
<radialGradient id="paint24_radial_45_124" cx="0" cy="0" r="1" gradientUnits="userSpaceOnUse" gradientTransform="translate(123.548 129.41) rotate(-129.95) scale(4.87626 3.19857)">
<stop stop-color="#103CC4" stop-opacity="0.8"/>
<stop offset="0.565" stop-color="#103CC4" stop-opacity="0.65"/>
<stop offset="0.785" stop-color="#103CC4" stop-opacity="0.2"/>
<stop offset="1" stop-color="#103CC4" stop-opacity="0.8"/>
</radialGradient>
<radialGradient id="paint25_radial_45_124" cx="0" cy="0" r="1" gradientUnits="userSpaceOnUse" gradientTransform="translate(117.748 133.478) rotate(-120.171) scale(4.87626 3.03767)">
<stop stop-color="#103CC4" stop-opacity="0.8"/>
<stop offset="0.565" stop-color="#103CC4" stop-opacity="0.65"/>
<stop offset="0.785" stop-color="#103CC4" stop-opacity="0.2"/>
<stop offset="1" stop-color="#103CC4" stop-opacity="0.8"/>
</radialGradient>
<radialGradient id="paint26_radial_45_124" cx="0" cy="0" r="1" gradientUnits="userSpaceOnUse" gradientTransform="translate(112.012 136.25) rotate(-111.395) scale(4.87626 2.55495)">
<stop stop-color="#103CC4" stop-opacity="0.8"/>
<stop offset="0.565" stop-color="#103CC4" stop-opacity="0.65"/>
<stop offset="0.785" stop-color="#103CC4" stop-opacity="0.2"/>
<stop offset="1" stop-color="#103CC4" stop-opacity="0.8"/>
</radialGradient>
<radialGradient id="paint27_radial_45_124" cx="0" cy="0" r="1" gradientUnits="userSpaceOnUse" gradientTransform="translate(105.999 138.09) rotate(-102.619) scale(4.87626 2.98955)">
<stop stop-color="#103CC4" stop-opacity="0.8"/>
<stop offset="0.565" stop-color="#103CC4" stop-opacity="0.65"/>
<stop offset="0.785" stop-color="#103CC4" stop-opacity="0.2"/>
<stop offset="1" stop-color="#103CC4" stop-opacity="0.8"/>
</radialGradient>
<radialGradient id="paint28_radial_45_124" cx="0" cy="0" r="1" gradientUnits="userSpaceOnUse" gradientTransform="translate(100.651 138.922) rotate(-95.0635) scale(4.87626 1.78952)">
<stop stop-color="#103CC4" stop-opacity="0.8"/>
<stop offset="0.565" stop-color="#103CC4" stop-opacity="0.65"/>
<stop offset="0.785" stop-color="#103CC4" stop-opacity="0.2"/>
<stop offset="1" stop-color="#103CC4" stop-opacity="0.8"/>
</radialGradient>
<radialGradient id="paint29_radial_45_124" cx="0" cy="0" r="1" gradientUnits="userSpaceOnUse" gradientTransform="translate(93.7484 138.953) rotate(-85.4701) scale(4.87626 1.76546)">
<stop stop-color="#103CC4" stop-opacity="0.8"/>
<stop offset="0.565" stop-color="#103CC4" stop-opacity="0.65"/>
<stop offset="0.785" stop-color="#103CC4" stop-opacity="0.2"/>
<stop offset="1" stop-color="#103CC4" stop-opacity="0.8"/>
</radialGradient>
<radialGradient id="paint30_radial_45_124" cx="0" cy="0" r="1" gradientUnits="userSpaceOnUse" gradientTransform="translate(85.9088 137.566) rotate(-74.4618) scale(4.87626 2.72638)">
<stop stop-color="#103CC4" stop-opacity="0.8"/>
<stop offset="0.565" stop-color="#103CC4" stop-opacity="0.65"/>
<stop offset="0.785" stop-color="#103CC4" stop-opacity="0.2"/>
<stop offset="1" stop-color="#103CC4" stop-opacity="0.8"/>
</radialGradient>
<radialGradient id="paint31_radial_45_124" cx="0" cy="0" r="1" gradientUnits="userSpaceOnUse" gradientTransform="translate(80.094 135.471) rotate(-65.9229) scale(4.87626 2.72638)">
<stop stop-color="#103CC4" stop-opacity="0.8"/>
<stop offset="0.565" stop-color="#103CC4" stop-opacity="0.65"/>
<stop offset="0.785" stop-color="#103CC4" stop-opacity="0.2"/>
<stop offset="1" stop-color="#103CC4" stop-opacity="0.8"/>
</radialGradient>
<radialGradient id="paint32_radial_45_124" cx="0" cy="0" r="1" gradientUnits="userSpaceOnUse" gradientTransform="translate(74.6582 132.537) rotate(-57.3505) scale(4.87626 2.72638)">
<stop stop-color="#103CC4" stop-opacity="0.8"/>
<stop offset="0.565" stop-color="#103CC4" stop-opacity="0.65"/>
<stop offset="0.785" stop-color="#103CC4" stop-opacity="0.2"/>
<stop offset="1" stop-color="#103CC4" stop-opacity="0.8"/>
</radialGradient>
<radialGradient id="paint33_radial_45_124" cx="0" cy="0" r="1" gradientUnits="userSpaceOnUse" gradientTransform="translate(69.719 128.821) rotate(-48.7266) scale(4.87626 2.72639)">
<stop stop-color="#103CC4" stop-opacity="0.8"/>
<stop offset="0.565" stop-color="#103CC4" stop-opacity="0.65"/>
<stop offset="0.785" stop-color="#103CC4" stop-opacity="0.2"/>
<stop offset="1" stop-color="#103CC4" stop-opacity="0.8"/>
</radialGradient>
<radialGradient id="paint34_radial_45_124" cx="0" cy="0" r="1" gradientUnits="userSpaceOnUse" gradientTransform="translate(64.2738 123.015) rotate(-37.6156) scale(4.87626 1.76546)">
<stop stop-color="#103CC4" stop-opacity="0.8"/>
<stop offset="0.565" stop-color="#103CC4" stop-opacity="0.65"/>
<stop offset="0.785" stop-color="#103CC4" stop-opacity="0.2"/>
<stop offset="1" stop-color="#103CC4" stop-opacity="0.8"/>
</radialGradient>
<radialGradient id="paint35_radial_45_124" cx="0" cy="0" r="1" gradientUnits="userSpaceOnUse" gradientTransform="translate(97.3756 97.5152) rotate(90) scale(57.4343)">
<stop stop-color="#103CC4" stop-opacity="0"/>
<stop offset="0.7" stop-color="#103CC4"/>
<stop offset="1" stop-color="#103CC4" stop-opacity="0.5"/>
</radialGradient>
<radialGradient id="paint36_radial_45_124" cx="0" cy="0" r="1" gradientUnits="userSpaceOnUse" gradientTransform="translate(97.3756 97.5152) rotate(90) scale(70.8094)">
<stop stop-color="#103CC4" stop-opacity="0"/>
<stop offset="0.7" stop-color="#103CC4"/>
<stop offset="1" stop-color="#103CC4" stop-opacity="0.5"/>
</radialGradient>
<radialGradient id="paint37_radial_45_124" cx="0" cy="0" r="1" gradientUnits="userSpaceOnUse" gradientTransform="translate(84.2429 87.8493) rotate(120) scale(30 16)">
<stop stop-color="#103CC4" stop-opacity="0.8"/>
<stop offset="0.565" stop-color="#103CC4" stop-opacity="0.65"/>
<stop offset="0.785" stop-color="#103CC4" stop-opacity="0.2"/>
<stop offset="1" stop-color="#103CC4" stop-opacity="0.8"/>
</radialGradient>
<radialGradient id="paint38_radial_45_124" cx="0" cy="0" r="1" gradientUnits="userSpaceOnUse" gradientTransform="translate(112.376 104.092) rotate(120) scale(30 16)">
<stop stop-color="#103CC4" stop-opacity="0.8"/>
<stop offset="0.565" stop-color="#103CC4" stop-opacity="0.65"/>
<stop offset="0.785" stop-color="#103CC4" stop-opacity="0.2"/>
<stop offset="1" stop-color="#103CC4" stop-opacity="0.8"/>
</radialGradient>
<clipPath id="clip0_45_124">
<rect width="142" height="142" fill="white" transform="translate(71.3367 0.33667) rotate(30)"/>
</clipPath>
</defs>
</svg>
