<svg width="720" height="720" viewBox="0 0 720 720" fill="none" xmlns="http://www.w3.org/2000/svg">
<path d="M261.321 526.789L259.813 528.941L258.107 527.746C257.728 527.48 257.352 527.297 256.978 527.197C256.578 527.077 256.159 527.127 255.723 527.346C255.287 527.565 254.822 528.027 254.329 528.73L240.47 548.504C239.958 549.235 239.673 549.842 239.616 550.327C239.559 550.812 239.654 551.222 239.903 551.558C240.125 551.875 240.426 552.166 240.805 552.432L242.51 553.627L241.002 555.779L227.928 546.615C225.356 544.813 223.458 543.059 222.232 541.352C220.979 539.626 220.359 537.92 220.371 536.233C220.363 534.573 220.929 532.931 222.067 531.306C223.073 529.872 224.197 528.844 225.441 528.221C226.684 527.599 227.953 527.258 229.247 527.196C230.542 527.135 231.782 527.237 232.968 527.503L233.97 515.793C234.036 514.951 234.058 514.199 234.037 513.539C233.996 512.905 233.922 512.348 233.814 511.869C233.679 511.371 233.483 510.93 233.226 510.548C232.95 510.194 232.622 509.883 232.244 509.618L232.081 509.504L233.589 507.352L234.929 508.291C236.147 509.145 237.188 509.935 238.052 510.661C238.869 511.395 239.531 512.122 240.036 512.839C240.496 513.565 240.813 514.352 240.986 515.2C241.158 516.048 241.182 516.993 241.057 518.035L239.628 530.354L242.308 532.233L247.914 524.234C248.407 523.53 248.682 522.936 248.74 522.451C248.797 521.967 248.701 521.556 248.452 521.22C248.203 520.884 247.903 520.593 247.551 520.346L245.805 519.123L247.313 516.971L261.321 526.789ZM238.383 532.994C237.138 532.121 236.012 531.655 235.005 531.595C233.951 531.542 232.972 531.845 232.067 532.503C231.143 533.187 230.217 534.193 229.287 535.519C228.319 536.9 227.713 538.11 227.469 539.149C227.206 540.216 227.307 541.195 227.772 542.086C228.237 542.978 229.079 543.85 230.297 544.704L232.489 546.24L240.657 534.588L238.383 532.994Z" fill="#103CC4"/>
<path d="M234.118 507.251L232.265 509.114L230.788 507.645C230.46 507.319 230.12 507.074 229.769 506.912C229.395 506.726 228.974 506.703 228.507 506.845C228.04 506.986 227.503 507.362 226.897 507.971L210.009 524.95C209.333 525.63 208.925 526.204 208.786 526.672C208.6 527.14 208.602 527.56 208.79 527.934C208.931 528.307 209.177 528.669 209.529 529.019L211.005 530.487L209.152 532.35L189.642 512.944L195.935 506.336L198.396 508.784L196.928 510.611C196.392 511.243 196.031 511.84 195.846 512.402C195.614 512.963 195.545 513.501 195.64 514.015C195.735 514.529 196.028 515.031 196.52 515.52L202.426 521.394L211.168 512.606L202.836 504.319L204.934 502.21L213.266 510.497L223.126 500.583L216.095 493.59C215.627 493.124 215.123 492.857 214.586 492.788C214.048 492.719 213.499 492.802 212.938 493.038C212.355 493.25 211.771 493.578 211.188 494.024L209.263 495.397L206.838 492.984L213.518 486.76L234.118 507.251Z" fill="#103CC4"/>
<path d="M211.584 484.591L209.429 486.096L208.237 484.389C207.972 484.01 207.681 483.709 207.364 483.486C207.029 483.237 206.619 483.14 206.134 483.197C205.649 483.253 205.054 483.527 204.35 484.02L184.555 497.848C183.824 498.36 183.348 498.833 183.128 499.269C182.908 499.705 182.858 500.123 182.977 500.524C183.077 500.898 183.259 501.274 183.524 501.654L184.717 503.361L182.562 504.866L172.766 490.843L174.92 489.338L176.113 491.045C176.378 491.424 176.692 491.729 177.054 491.96C177.39 492.209 177.813 492.296 178.325 492.221C178.81 492.164 179.445 491.862 180.231 491.313L189.702 484.697L178.431 483.195C177.392 483.035 176.528 482.953 175.84 482.949C175.125 482.965 174.531 483.037 174.057 483.167C173.537 483.288 173.087 483.481 172.707 483.746C172.409 483.955 172.236 484.197 172.187 484.473C172.092 484.741 172.131 485.057 172.304 485.42C172.45 485.802 172.721 486.277 173.119 486.846L171.005 488.323L163.31 477.308L165.424 475.831C165.935 476.563 166.566 477.15 167.319 477.592C168.071 478.034 168.936 478.377 169.914 478.622C170.872 478.839 171.931 479.027 173.089 479.185L182.731 480.433L189.44 464.496C189.78 463.654 190.043 462.906 190.23 462.251C190.372 461.587 190.455 460.985 190.48 460.443C190.459 459.894 190.37 459.391 190.213 458.936C190.038 458.454 189.798 457.996 189.496 457.562L189.382 457.4L191.536 455.895L193.07 458.09C194.149 459.634 194.971 460.955 195.536 462.052C196.073 463.169 196.42 464.156 196.577 465.015C196.687 465.865 196.654 466.654 196.477 467.383C196.3 468.111 196.019 468.892 195.634 469.726L190.119 481.744L192.791 482.538L199.66 477.74C200.419 477.21 200.922 476.717 201.168 476.262C201.415 475.808 201.493 475.37 201.401 474.951C201.282 474.55 201.091 474.16 200.826 473.78L199.633 472.073L201.787 470.568L211.584 484.591Z" fill="#103CC4"/>
<path d="M187.113 444.206C188.068 446.204 188.687 447.96 188.97 449.473C189.224 451 189.245 452.309 189.033 453.399C188.791 454.504 188.383 455.413 187.809 456.128C187.22 456.812 186.567 457.325 185.852 457.667C184.838 458.152 183.918 458.298 183.094 458.106C182.239 457.928 181.493 457.515 180.854 456.868C180.215 456.221 179.689 455.464 179.275 454.6C180.976 453.787 182.286 452.85 183.207 451.787C184.084 450.709 184.6 449.565 184.754 448.355C184.879 447.16 184.657 445.965 184.087 444.772C183.246 443.013 182.135 441.877 180.755 441.364C179.36 440.821 177.976 440.878 176.604 441.533C175.59 442.018 174.861 442.715 174.416 443.623C173.927 444.516 173.647 445.657 173.578 447.046C173.479 448.449 173.486 450.149 173.598 452.147C173.712 453.997 173.683 455.623 173.51 457.024C173.337 458.426 173.02 459.64 172.558 460.667C172.066 461.708 171.444 462.591 170.692 463.317C169.895 464.027 168.945 464.646 167.842 465.173C166.023 466.042 164.214 466.32 162.416 466.007C160.617 465.694 158.954 464.895 157.424 463.611C155.881 462.297 154.61 460.596 153.613 458.508C152.558 456.301 151.934 454.383 151.742 452.753C151.52 451.138 151.639 449.816 152.101 448.79C152.549 447.733 153.265 446.97 154.249 446.5C155.293 446.001 156.394 446.043 157.551 446.625C158.695 447.178 159.708 448.379 160.592 450.228C159.757 450.627 158.94 451.219 158.142 452.003C157.331 452.757 156.745 453.641 156.387 454.655C156.029 455.669 156.128 456.757 156.684 457.92C157.068 458.726 157.589 459.393 158.244 459.922C158.856 460.436 159.575 460.752 160.401 460.87C161.183 460.973 162.021 460.81 162.916 460.383C163.751 459.984 164.434 459.42 164.964 458.69C165.495 457.96 165.861 456.887 166.064 455.472C166.237 454.07 166.249 452.178 166.099 449.795C165.951 447.338 166.025 445.269 166.322 443.589C166.618 441.909 167.197 440.515 168.06 439.406C168.893 438.313 170.04 437.416 171.501 436.718C173.41 435.806 175.352 435.501 177.328 435.802C179.26 436.088 181.078 436.942 182.782 438.362C184.487 439.782 185.93 441.73 187.113 444.206Z" fill="#103CC4"/>
<path d="M180.346 431.766L177.821 432.497L177.656 431.925C177.491 431.354 177.248 430.873 176.929 430.484C176.61 430.095 176.162 429.794 175.584 429.583C174.966 429.349 174.13 429.195 173.076 429.122L142.08 426.894L140.191 420.369L165.361 402.294C166.158 401.719 166.76 401.183 167.167 400.687C167.533 400.168 167.767 399.67 167.87 399.193C167.932 398.693 167.889 398.19 167.742 397.682L167.494 396.824L170.018 396.094L174.568 411.81L172.044 412.541L171.506 410.684C171.368 410.207 171.092 409.788 170.678 409.427C170.263 409.065 169.723 408.98 169.056 409.173C168.802 409.247 168.557 409.352 168.322 409.489C168.077 409.595 167.852 409.711 167.649 409.839C167.445 409.967 167.273 410.086 167.132 410.195L162.852 413.241L166.203 424.814L170.698 425.009C170.971 424.999 171.28 424.996 171.625 424.999C171.97 425.003 172.326 424.986 172.694 424.948C173.03 424.92 173.325 424.869 173.579 424.795C174.182 424.62 174.578 424.265 174.767 423.728C174.956 423.192 174.972 422.654 174.816 422.114L174.236 420.114L176.761 419.383L180.346 431.766ZM163.008 424.655L160.223 415.034L153.143 419.82C152.477 420.254 151.768 420.717 151.016 421.21C150.232 421.712 149.444 422.199 148.651 422.669C147.858 423.139 147.124 423.576 146.449 423.978C146.993 423.958 147.595 423.955 148.253 423.971C148.88 423.996 149.539 424.012 150.229 424.019C150.887 424.035 151.566 424.062 152.265 424.1C152.924 424.116 153.551 424.141 154.145 424.175L163.008 424.655Z" fill="#103CC4"/>
<path d="M168.574 369.082C168.627 371.792 168.259 374.097 167.469 375.997C166.646 377.865 165.468 379.31 163.934 380.331C162.366 381.321 160.475 381.837 158.261 381.88C156.311 381.918 154.734 381.569 153.529 380.832C152.291 380.063 151.279 379.041 150.494 377.767C149.676 376.494 148.954 375.103 148.33 373.594C147.289 374.474 146.328 375.204 145.446 375.783C144.532 376.363 143.615 376.794 142.695 377.077C141.741 377.36 140.719 377.512 139.629 377.533C138.175 377.562 136.895 377.223 135.79 376.517C134.685 375.778 133.82 374.671 133.196 373.196C132.539 371.721 132.189 369.893 132.147 367.711C132.106 365.596 132.402 363.838 133.036 362.437C133.636 361.004 134.458 359.93 135.502 359.215C136.546 358.501 137.712 358.131 139.001 358.105C140.323 358.08 141.502 358.338 142.537 358.879C143.539 359.389 144.464 360.197 145.312 361.305C146.16 362.379 146.997 363.768 147.824 365.471L155.413 357.934C154.252 357.758 153.109 357.648 151.985 357.604C150.86 357.56 149.834 357.547 148.909 357.565L146.728 357.607L146.516 346.751L149.143 346.699L149.159 347.493C149.173 348.22 149.269 348.929 149.448 349.619C149.593 350.278 149.902 350.867 150.375 351.387C150.848 351.873 151.599 352.255 152.629 352.533C153.559 352.746 154.556 353.024 155.621 353.367C156.653 353.71 157.702 354.12 158.769 354.595L163.828 349.537C164.152 349.2 164.409 348.831 164.6 348.431C164.757 348.031 164.864 347.582 164.921 347.085C164.977 346.588 165 346.042 164.988 345.448L164.979 345.001L167.607 344.95L167.798 354.766L164.246 358.257C165.056 359.068 165.785 359.996 166.433 361.041C167.082 362.086 167.601 363.283 167.991 364.631C168.348 365.946 168.542 367.43 168.574 369.082ZM165.229 367.908C165.194 366.156 164.884 364.675 164.299 363.463C163.68 362.252 162.884 361.259 161.91 360.485L150.814 371.314C151.493 372.226 152.234 372.923 153.037 373.403C153.807 373.884 154.64 374.215 155.536 374.396C156.399 374.544 157.342 374.608 158.367 374.588C159.358 374.569 160.281 374.402 161.134 374.088C161.954 373.741 162.672 373.281 163.289 372.707C163.906 372.133 164.388 371.446 164.737 370.645C165.084 369.812 165.248 368.9 165.229 367.908ZM145.634 367.597C144.813 366.224 143.919 365.299 142.951 364.822C141.949 364.313 140.688 364.073 139.168 364.103C138.375 364.118 137.683 364.231 137.092 364.441C136.468 364.651 135.979 365.008 135.625 365.511C135.271 366.014 135.103 366.728 135.121 367.653C135.143 368.777 135.556 369.595 136.359 370.109C137.162 370.589 138.159 370.817 139.348 370.794C140.108 370.779 140.833 370.649 141.523 370.405C142.179 370.16 142.834 369.817 143.486 369.374C144.138 368.899 144.854 368.306 145.634 367.597Z" fill="#103CC4"/>
<path d="M169.827 331.503L167.274 330.882L167.766 328.859C167.875 328.409 167.908 327.992 167.866 327.607C167.831 327.191 167.632 326.819 167.269 326.493C166.906 326.167 166.307 325.902 165.472 325.699L142.009 319.995C141.142 319.784 140.472 319.74 140 319.864C139.528 319.987 139.18 320.226 138.958 320.58C138.744 320.902 138.582 321.288 138.473 321.738L137.981 323.761L135.427 323.14L139.199 307.627C139.94 304.575 140.883 302.168 142.026 300.405C143.177 298.61 144.54 297.41 146.115 296.807C147.659 296.195 149.394 296.124 151.321 296.592C153.023 297.006 154.391 297.679 155.423 298.61C156.455 299.541 157.236 300.599 157.765 301.782C158.293 302.965 158.65 304.157 158.834 305.358L170.105 302.026C170.913 301.78 171.621 301.527 172.228 301.267C172.804 300.998 173.295 300.726 173.702 300.451C174.117 300.144 174.455 299.801 174.718 299.422C174.948 299.036 175.117 298.618 175.226 298.168L175.273 297.976L177.827 298.596L177.44 300.186C177.089 301.632 176.732 302.889 176.371 303.957C175.984 304.986 175.549 305.867 175.065 306.6C174.556 307.292 173.939 307.874 173.212 308.343C172.486 308.813 171.614 309.18 170.598 309.443L158.605 312.599L157.832 315.779L167.323 318.087C168.158 318.29 168.812 318.329 169.284 318.206C169.756 318.083 170.103 317.844 170.325 317.49C170.548 317.136 170.709 316.75 170.811 316.332L171.315 314.26L173.868 314.881L169.827 331.503ZM155.693 312.402C156.052 310.924 156.076 309.706 155.765 308.746C155.43 307.746 154.792 306.944 153.85 306.341C152.876 305.73 151.602 305.233 150.028 304.85C148.39 304.452 147.042 304.329 145.985 304.48C144.895 304.623 144.02 305.074 143.36 305.832C142.699 306.59 142.193 307.691 141.842 309.137L141.21 311.738L155.037 315.1L155.693 312.402Z" fill="#103CC4"/>
<path d="M178.131 299.036L175.721 297.988L176.551 296.079C176.736 295.654 176.84 295.249 176.864 294.863C176.901 294.446 176.768 294.046 176.467 293.663C176.165 293.279 175.62 292.916 174.832 292.573L152.871 283.022C151.992 282.639 151.309 282.469 150.823 282.509C150.319 282.507 149.928 282.661 149.648 282.972C149.352 283.239 149.104 283.6 148.907 284.055L148.076 285.965L145.666 284.917L156.642 259.682L165.087 263.139L163.703 266.321L161.467 265.619C160.683 265.35 159.995 265.232 159.405 265.263C158.797 265.251 158.271 265.383 157.827 265.658C157.383 265.934 157.022 266.39 156.746 267.026L153.423 274.665L164.79 279.609L169.477 268.833L172.205 270.019L167.518 280.795L180.341 286.372L184.296 277.278C184.559 276.672 184.625 276.106 184.494 275.58C184.362 275.054 184.084 274.573 183.661 274.137C183.252 273.67 182.733 273.247 182.106 272.866L180.127 271.572L181.491 268.435L189.719 272.392L178.131 299.036Z" fill="#103CC4"/>
<path d="M198.066 260.168C196.883 262.041 195.726 263.499 194.596 264.545C193.438 265.573 192.341 266.287 191.306 266.688C190.242 267.072 189.255 267.211 188.345 267.105C187.452 266.97 186.67 266.691 186 266.268C185.049 265.667 184.436 264.967 184.16 264.167C183.856 263.349 183.808 262.497 184.015 261.612C184.223 260.726 184.583 259.878 185.095 259.068C186.688 260.074 188.179 260.685 189.569 260.898C190.949 261.066 192.192 260.894 193.298 260.381C194.376 259.85 195.269 259.026 195.975 257.908C197.017 256.26 197.387 254.715 197.086 253.273C196.803 251.804 196.018 250.663 194.733 249.85C193.783 249.25 192.805 249.003 191.799 249.11C190.782 249.172 189.668 249.543 188.456 250.223C187.216 250.886 185.78 251.797 184.148 252.956C182.643 254.038 181.251 254.879 179.973 255.479C178.694 256.078 177.498 256.456 176.383 256.612C175.24 256.75 174.161 256.693 173.146 256.443C172.121 256.147 171.091 255.672 170.057 255.019C168.353 253.942 167.154 252.559 166.462 250.87C165.77 249.181 165.56 247.347 165.833 245.369C166.123 243.363 166.886 241.382 168.123 239.426C169.429 237.358 170.721 235.809 171.999 234.778C173.248 233.73 174.43 233.128 175.545 232.972C176.677 232.789 177.705 232.988 178.627 233.571C179.605 234.189 180.155 235.143 180.279 236.433C180.419 237.695 179.942 239.193 178.847 240.925C178.065 240.431 177.13 240.054 176.041 239.797C174.971 239.511 173.911 239.486 172.862 239.723C171.813 239.959 170.944 240.623 170.256 241.712C169.779 242.467 169.491 243.262 169.392 244.099C169.283 244.891 169.398 245.667 169.738 246.429C170.067 247.146 170.651 247.769 171.489 248.299C172.272 248.793 173.113 249.071 174.013 249.131C174.913 249.192 176.016 248.931 177.323 248.349C178.601 247.749 180.209 246.752 182.147 245.356C184.148 243.923 185.938 242.884 187.518 242.24C189.098 241.597 190.587 241.345 191.984 241.485C193.354 241.608 194.723 242.101 196.092 242.967C197.88 244.097 199.173 245.579 199.97 247.412C200.756 249.199 201.002 251.192 200.707 253.391C200.412 255.59 199.532 257.849 198.066 260.168Z" fill="#103CC4"/>
<path d="M209.913 242.449L207.929 240.726L209.295 239.154C209.62 238.779 209.852 238.411 209.991 238.05C210.126 237.642 210.084 237.212 209.864 236.759C209.667 236.28 209.219 235.738 208.52 235.131L188.492 217.737L185.891 220.732C185.241 221.48 184.844 222.164 184.7 222.784C184.531 223.381 184.56 223.953 184.786 224.5C185.012 225.046 185.366 225.595 185.851 226.147L187.944 228.425L185.766 230.933L178.666 224.438L198.921 201.117L206.346 207.237L204.168 209.745L201.619 207.991C201.027 207.564 200.433 207.29 199.839 207.168C199.266 207.02 198.696 207.072 198.128 207.323C197.535 207.552 196.913 208.041 196.263 208.79L193.662 211.785L213.689 229.179C214.388 229.786 214.977 230.166 215.457 230.32C215.958 230.449 216.401 230.417 216.786 230.226C217.146 230.014 217.477 229.732 217.781 229.383L219.146 227.811L221.13 229.534L209.913 242.449Z" fill="#103CC4"/>
<path d="M226.785 224.005L225.046 222.034L226.608 220.656C226.98 220.328 227.258 219.994 227.443 219.655C227.631 219.268 227.646 218.836 227.489 218.358C227.356 217.858 226.984 217.261 226.371 216.567L210.69 198.796C210.056 198.077 209.51 197.633 209.052 197.464C208.597 197.248 208.177 197.222 207.792 197.385C207.41 197.502 207.033 197.724 206.661 198.053L205.1 199.43L203.361 197.46L216.187 186.142L217.926 188.112L216.365 189.49C216.018 189.796 215.75 190.143 215.562 190.529C215.352 190.89 215.314 191.321 215.446 191.821C215.582 192.275 215.967 192.861 216.601 193.58L232.283 211.351C232.895 212.045 233.429 212.499 233.884 212.715C234.363 212.909 234.806 212.937 235.213 212.798C235.598 212.635 235.964 212.4 236.311 212.094L237.873 210.716L239.611 212.687L226.785 224.005Z" fill="#103CC4"/>
<path d="M253.778 191.059C252.626 191.773 251.465 192.221 250.294 192.402C249.105 192.556 247.94 192.306 246.796 191.654C245.681 190.984 244.609 189.82 243.582 188.162C242.537 186.477 241.971 184.999 241.885 183.731C241.809 182.417 242.113 181.275 242.796 180.307C243.462 179.311 244.371 178.456 245.523 177.742C246.647 177.045 247.789 176.629 248.949 176.493C250.12 176.312 251.277 176.547 252.42 177.2C253.575 177.807 254.674 178.953 255.719 180.639C256.746 182.296 257.284 183.791 257.332 185.123C257.407 186.437 257.112 187.592 256.447 188.588C255.791 189.539 254.902 190.362 253.778 191.059Z" fill="#103CC4"/>
<path d="M282.654 186.835L281.722 184.378L285.524 182.937C286.05 182.738 286.447 182.481 286.717 182.167C286.987 181.852 287.117 181.45 287.107 180.958C287.129 180.455 286.993 179.817 286.7 179.045L277.896 155.816C277.486 157.067 277.082 158.193 276.683 159.192C276.273 160.161 275.835 160.963 275.369 161.6C274.903 162.236 274.361 162.671 273.743 162.905C273.001 163.186 272.25 163.117 271.49 162.698C270.73 162.279 270.151 161.544 269.753 160.494C270.313 160.105 270.901 159.652 271.518 159.135C272.124 158.588 272.756 157.924 273.415 157.144C274.093 156.321 274.801 155.346 275.54 154.217L277.872 150.576L283.064 148.608L293.608 176.426C293.854 177.075 294.127 177.608 294.427 178.025C294.714 178.411 295.075 178.663 295.509 178.781C295.931 178.869 296.466 178.79 297.115 178.544L300.871 177.12L301.802 179.577L282.654 186.835Z" fill="#103CC4"/>
<path d="M306.638 178.092L305.556 173.101L311.141 164.23C312.298 162.389 313.228 160.75 313.931 159.313C314.627 157.843 315.131 156.499 315.442 155.281C315.753 154.064 315.902 152.882 315.89 151.734C315.878 150.587 315.736 149.383 315.463 148.123C315.197 146.896 314.818 145.929 314.327 145.224C313.861 144.479 313.299 143.993 312.64 143.763C312.007 143.495 311.303 143.444 310.528 143.612C309.429 143.851 308.627 144.363 308.121 145.149C307.608 145.903 307.343 146.941 307.325 148.264C307.3 149.555 307.488 151.121 307.887 152.962C306.659 153.228 305.542 153.301 304.535 153.181C303.528 153.061 302.693 152.718 302.029 152.152C301.358 151.553 300.896 150.672 300.644 149.509C300.392 148.346 300.545 147.18 301.103 146.01C301.694 144.834 302.718 143.783 304.175 142.859C305.624 141.902 307.529 141.168 309.887 140.657C312.31 140.131 314.415 140.013 316.202 140.302C317.99 140.591 319.433 141.242 320.532 142.255C321.631 143.269 322.363 144.615 322.727 146.295C322.923 147.199 322.987 148.116 322.917 149.044C322.841 149.94 322.614 150.919 322.235 151.982C321.889 153.038 321.354 154.237 320.63 155.577C319.931 156.879 319.025 158.394 317.912 160.124C316.799 161.853 315.472 163.849 313.933 166.11L310.086 171.764L321.376 169.317C322.377 169.1 323.154 168.627 323.707 167.898C324.291 167.163 324.613 166.23 324.673 165.101L324.735 163.515L327.594 162.895L329.558 173.124L306.638 178.092Z" fill="#103CC4"/>
<path d="M355.739 161.381C354.384 161.41 353.157 161.204 352.056 160.765C350.955 160.292 350.079 159.484 349.426 158.341C348.807 157.196 348.477 155.65 348.435 153.7C348.393 151.717 348.658 150.157 349.229 149.021C349.832 147.851 350.674 147.023 351.755 146.538C352.835 146.019 354.053 145.745 355.408 145.716C356.73 145.688 357.925 145.911 358.993 146.384C360.093 146.824 360.969 147.615 361.622 148.759C362.306 149.868 362.67 151.415 362.712 153.397C362.753 155.347 362.456 156.908 361.819 158.078C361.216 159.248 360.374 160.093 359.294 160.611C358.246 161.096 357.061 161.353 355.739 161.381Z" fill="#103CC4"/>
<path d="M391.609 174.485C388.645 173.968 386.415 172.808 384.918 171.003C383.42 169.199 382.516 166.877 382.206 164.038C381.928 161.205 382.104 157.981 382.734 154.366C383.364 150.751 384.287 147.674 385.501 145.135C386.748 142.601 388.379 140.754 390.392 139.595C392.406 138.436 394.911 138.118 397.907 138.64C400.74 139.134 402.892 140.264 404.362 142.03C405.865 143.802 406.788 146.111 407.131 148.955C407.48 151.768 407.339 154.981 406.709 158.595C406.079 162.21 405.122 165.298 403.836 167.859C402.557 170.387 400.907 172.247 398.888 173.438C396.868 174.63 394.442 174.979 391.609 174.485ZM392.162 171.31C393.074 171.469 393.863 171.271 394.53 170.716C395.236 170.134 395.846 169.234 396.36 168.015C396.907 166.802 397.405 165.295 397.853 163.494C398.301 161.693 398.729 159.62 399.138 157.276C399.547 154.931 399.842 152.852 400.024 151.038C400.244 149.198 400.302 147.614 400.198 146.287C400.094 144.96 399.805 143.92 399.333 143.167C398.893 142.419 398.233 141.969 397.354 141.815C396.442 141.656 395.636 141.851 394.936 142.401C394.237 142.95 393.613 143.831 393.066 145.044C392.519 146.257 392.022 147.764 391.574 149.565C391.131 151.334 390.706 153.39 390.297 155.735C389.888 158.079 389.59 160.175 389.403 162.021C389.215 163.867 389.173 165.454 389.277 166.781C389.382 168.107 389.651 169.161 390.085 169.941C390.558 170.695 391.25 171.151 392.162 171.31Z" fill="#103CC4"/>
<path d="M414.766 179.462L415.602 176.971L416.918 177.413C417.639 177.655 418.308 177.792 418.925 177.825C419.572 177.868 420.148 177.712 420.65 177.358C421.163 176.972 421.583 176.294 421.909 175.322L422.872 172.455L409.852 168.084L410.814 165.217L431.533 147.747L438.067 149.941L430.776 171.657L435.664 173.298L434.623 176.4L429.734 174.759L428.772 177.626C428.445 178.598 428.371 179.392 428.547 180.009C428.734 180.595 429.099 181.066 429.641 181.423C430.184 181.779 430.8 182.073 431.49 182.305L432.101 182.51L431.264 185.001L414.766 179.462ZM414.183 166.086L423.913 169.353L426.675 161.127C426.906 160.438 427.148 159.717 427.401 158.965C427.685 158.223 427.953 157.477 428.205 156.725C428.5 155.952 428.794 155.179 429.088 154.406C429.414 153.644 429.729 152.913 430.034 152.213C429.751 152.536 429.332 152.954 428.777 153.465C428.253 153.986 427.667 154.539 427.017 155.123C426.41 155.686 425.834 156.207 425.289 156.687C424.744 157.167 424.331 157.516 424.048 157.735L414.183 166.086Z" fill="#103CC4"/>
<path d="M458.688 187.97C457.509 187.301 456.56 186.497 455.839 185.556C455.135 184.586 454.796 183.443 454.82 182.127C454.874 180.827 455.381 179.329 456.344 177.633C457.322 175.908 458.348 174.704 459.42 174.02C460.537 173.323 461.684 173.043 462.861 173.179C464.055 173.286 465.241 173.674 466.42 174.342C467.57 174.995 468.482 175.798 469.158 176.751C469.878 177.692 470.226 178.82 470.201 180.136C470.222 181.44 469.743 182.954 468.764 184.679C467.802 186.376 466.748 187.564 465.602 188.244C464.485 188.94 463.329 189.235 462.136 189.128C460.987 189.008 459.838 188.623 458.688 187.97Z" fill="#103CC4"/>
<path d="M473.891 209.005L475.626 207.031L477.19 208.406C477.537 208.712 477.891 208.935 478.252 209.076C478.637 209.238 479.058 209.235 479.516 209.065C479.973 208.895 480.486 208.487 481.053 207.842L496.996 189.707C497.585 189.036 497.935 188.464 498.045 187.988C498.155 187.512 498.105 187.094 497.894 186.733C497.708 186.394 497.442 186.071 497.094 185.766L495.53 184.391L497.265 182.417L509.256 192.958C511.614 195.032 513.309 196.984 514.34 198.815C515.396 200.667 515.826 202.431 515.629 204.107C515.454 205.758 514.712 207.328 513.403 208.818C512.246 210.133 511.016 211.032 509.712 211.514C508.408 211.996 507.109 212.197 505.815 212.116C504.522 212.035 503.301 211.798 502.151 211.403L499.871 222.933C499.714 223.763 499.609 224.507 499.558 225.166C499.529 225.801 499.541 226.362 499.596 226.85C499.676 227.36 499.822 227.819 500.036 228.227C500.271 228.61 500.563 228.955 500.91 229.26L501.059 229.391L499.324 231.365L498.095 230.284C496.978 229.302 496.03 228.403 495.252 227.586C494.52 226.767 493.942 225.973 493.518 225.204C493.14 224.432 492.912 223.615 492.833 222.753C492.754 221.892 492.834 220.95 493.073 219.927L495.844 207.839L493.386 205.678L486.937 213.014C486.369 213.66 486.031 214.22 485.921 214.696C485.811 215.171 485.861 215.59 486.072 215.951C486.282 216.312 486.549 216.634 486.872 216.918L488.473 218.326L486.738 220.299L473.891 209.005ZM497.37 205.352C498.512 206.356 499.58 206.943 500.575 207.113C501.616 207.28 502.623 207.087 503.594 206.532C504.588 205.953 505.619 205.055 506.688 203.839C507.801 202.573 508.536 201.437 508.893 200.43C509.272 199.398 509.279 198.414 508.914 197.477C508.549 196.541 507.808 195.581 506.691 194.599L504.68 192.831L495.285 203.518L497.37 205.352Z" fill="#103CC4"/>
<path d="M498.876 231.51L500.924 229.864L502.229 231.488C502.519 231.848 502.829 232.129 503.16 232.33C503.511 232.556 503.927 232.625 504.407 232.536C504.887 232.448 505.462 232.134 506.132 231.596L524.802 216.597C525.549 215.997 526.018 215.472 526.208 215.023C526.444 214.578 526.49 214.16 526.345 213.768C526.246 213.381 526.041 212.994 525.731 212.608L524.426 210.984L526.475 209.338L543.709 230.792L536.721 236.66L534.547 233.954L536.209 232.301C536.812 231.732 537.236 231.179 537.483 230.642C537.776 230.109 537.904 229.582 537.867 229.061C537.83 228.54 537.594 228.009 537.159 227.467L531.942 220.973L522.279 228.737L529.638 237.898L527.319 239.761L519.96 230.6L509.059 239.357L515.269 247.088C515.684 247.603 516.154 247.925 516.681 248.053C517.208 248.181 517.763 248.159 518.345 247.987C518.949 247.841 519.566 247.58 520.195 247.201L522.26 246.051L524.402 248.718L517.073 254.161L498.876 231.51Z" fill="#103CC4"/>
<path d="M518.771 256.562L521.078 255.305L522.075 257.133C522.296 257.54 522.552 257.871 522.842 258.127C523.148 258.412 523.545 258.553 524.033 258.551C524.521 258.549 525.142 258.342 525.897 257.931L547.101 246.378C547.884 245.951 548.41 245.533 548.676 245.124C548.943 244.715 549.039 244.305 548.966 243.894C548.908 243.511 548.768 243.117 548.547 242.71L547.55 240.882L549.858 239.624L558.042 254.645L555.735 255.903L554.738 254.074C554.517 253.668 554.239 253.33 553.904 253.061C553.598 252.776 553.186 252.642 552.669 252.66C552.181 252.663 551.516 252.893 550.675 253.352L540.53 258.879L551.565 261.619C552.581 261.894 553.43 262.071 554.113 262.15C554.825 262.214 555.424 262.208 555.91 262.131C556.44 262.068 556.908 261.926 557.315 261.705C557.634 261.531 557.833 261.309 557.913 261.04C558.037 260.784 558.033 260.466 557.901 260.086C557.798 259.691 557.581 259.188 557.249 258.578L559.513 257.345L565.942 269.144L563.678 270.378C563.251 269.594 562.688 268.941 561.989 268.418C561.29 267.895 560.468 267.458 559.524 267.107C558.596 266.785 557.564 266.481 556.43 266.195L546.986 263.888L538.554 278.984C538.123 279.784 537.779 280.498 537.52 281.129C537.306 281.772 537.157 282.362 537.072 282.897C537.032 283.446 537.065 283.955 537.17 284.425C537.291 284.923 537.478 285.405 537.732 285.869L537.826 286.044L535.519 287.301L534.238 284.95C533.336 283.295 532.666 281.891 532.226 280.738C531.815 279.57 531.579 278.55 531.519 277.679C531.503 276.822 531.624 276.041 531.88 275.337C532.136 274.633 532.502 273.887 532.977 273.101L539.789 261.768L537.221 260.682L529.863 264.691C529.05 265.134 528.496 265.568 528.2 265.992C527.905 266.417 527.779 266.843 527.824 267.27C527.897 267.682 528.045 268.091 528.266 268.497L529.263 270.326L526.955 271.583L518.771 256.562Z" fill="#103CC4"/>
<path d="M538.633 299.409C537.904 297.318 537.482 295.505 537.367 293.97C537.283 292.424 537.406 291.12 537.737 290.06C538.098 288.989 538.604 288.13 539.254 287.483C539.914 286.868 540.619 286.429 541.368 286.168C542.429 285.798 543.359 285.754 544.158 286.036C544.987 286.307 545.684 286.799 546.248 287.512C546.812 288.226 547.251 289.035 547.567 289.941C545.788 290.561 544.382 291.349 543.35 292.304C542.36 293.279 541.721 294.359 541.434 295.544C541.179 296.719 541.268 297.93 541.704 299.179C542.346 301.02 543.325 302.272 544.641 302.933C545.967 303.626 547.348 303.722 548.784 303.221C549.845 302.851 550.647 302.239 551.19 301.385C551.774 300.551 552.177 299.448 552.399 298.075C552.651 296.692 552.832 295.001 552.94 293.003C553.03 291.151 553.238 289.539 553.564 288.165C553.89 286.791 554.339 285.619 554.911 284.649C555.515 283.669 556.23 282.859 557.058 282.221C557.927 281.602 558.939 281.092 560.094 280.689C561.998 280.025 563.827 279.948 565.579 280.457C567.332 280.966 568.898 281.943 570.277 283.388C571.667 284.863 572.742 286.694 573.504 288.879C574.309 291.188 574.718 293.164 574.73 294.805C574.774 296.435 574.509 297.735 573.937 298.705C573.376 299.705 572.58 300.385 571.55 300.745C570.458 301.125 569.368 300.963 568.282 300.256C567.206 299.581 566.331 298.276 565.656 296.341C566.53 296.036 567.407 295.538 568.286 294.846C569.176 294.186 569.855 293.372 570.322 292.404C570.79 291.435 570.811 290.343 570.387 289.125C570.093 288.283 569.649 287.562 569.056 286.964C568.504 286.386 567.825 285.993 567.017 285.785C566.251 285.596 565.4 285.666 564.464 285.992C563.59 286.297 562.849 286.783 562.241 287.45C561.634 288.117 561.151 289.142 560.794 290.527C560.468 291.901 560.248 293.781 560.134 296.166C560.011 298.624 559.71 300.672 559.231 302.309C558.752 303.947 558.022 305.269 557.043 306.275C556.095 307.271 554.856 308.035 553.327 308.569C551.329 309.265 549.365 309.355 547.434 308.838C545.546 308.341 543.833 307.293 542.295 305.694C540.757 304.095 539.537 302 538.633 299.409Z" fill="#103CC4"/>
<path d="M543.984 312.485L546.574 312.036L546.675 312.622C546.777 313.208 546.965 313.712 547.24 314.134C547.515 314.556 547.927 314.904 548.478 315.178C549.067 315.478 549.881 315.722 550.92 315.911L581.486 321.524L582.648 328.216L555.647 343.423C554.792 343.907 554.135 344.373 553.676 344.822C553.255 345.298 552.968 345.767 552.813 346.23C552.697 346.72 552.684 347.225 552.775 347.746L552.927 348.626L550.338 349.075L547.539 332.954L550.128 332.505L550.459 334.41C550.544 334.898 550.772 335.345 551.144 335.75C551.517 336.155 552.045 336.298 552.729 336.18C552.989 336.134 553.244 336.057 553.493 335.946C553.748 335.868 553.984 335.777 554.201 335.672C554.417 335.568 554.601 335.469 554.753 335.375L559.341 332.817L557.28 320.946L552.833 320.259C552.561 320.239 552.254 320.209 551.911 320.167C551.568 320.126 551.212 320.104 550.843 320.101C550.506 320.093 550.207 320.111 549.946 320.156C549.328 320.264 548.895 320.574 548.648 321.086C548.402 321.599 548.327 322.132 548.423 322.686L548.779 324.737L546.19 325.187L543.984 312.485ZM560.438 321.455L562.152 331.323L569.714 327.342C570.423 326.984 571.179 326.601 571.98 326.194C572.814 325.781 573.651 325.384 574.491 325.003C575.331 324.622 576.108 324.269 576.823 323.944C576.279 323.904 575.681 323.84 575.028 323.752C574.408 323.659 573.756 323.571 573.07 323.488C572.418 323.4 571.746 323.299 571.055 323.184C570.402 323.096 569.782 323.003 569.194 322.903L560.438 321.455Z" fill="#103CC4"/>
<path d="M548.794 376.116C549.042 373.416 549.663 371.166 550.658 369.366C551.683 367.601 553.014 366.295 554.652 365.45C556.319 364.64 558.256 364.336 560.461 364.539C562.403 364.717 563.932 365.239 565.048 366.104C566.193 367.006 567.085 368.133 567.725 369.487C568.397 370.843 568.96 372.305 569.414 373.874C570.546 373.114 571.582 372.496 572.522 372.018C573.495 371.542 574.454 371.216 575.4 371.037C576.379 370.861 577.411 370.823 578.497 370.922C579.946 371.055 581.18 371.533 582.2 372.357C583.216 373.214 583.953 374.41 584.41 375.946C584.9 377.484 585.045 379.34 584.846 381.512C584.652 383.619 584.163 385.333 583.378 386.656C582.623 388.014 581.687 388.99 580.57 389.585C579.454 390.179 578.253 390.418 576.97 390.3C575.653 390.179 574.51 389.793 573.541 389.139C572.602 388.522 571.772 387.616 571.052 386.422C570.328 385.26 569.65 383.787 569.017 382.003L560.64 388.654C561.774 388.957 562.897 389.192 564.011 389.361C565.124 389.529 566.141 389.656 567.063 389.74L569.235 389.94L568.244 400.753L565.627 400.513L565.699 399.723C565.766 398.999 565.748 398.283 565.647 397.577C565.576 396.907 565.334 396.287 564.921 395.718C564.506 395.182 563.801 394.719 562.808 394.329C561.908 394.014 560.947 393.628 559.927 393.169C558.94 392.713 557.942 392.19 556.934 391.6L551.346 396.067C550.987 396.366 550.69 396.704 550.457 397.08C550.256 397.46 550.1 397.894 549.989 398.382C549.878 398.87 549.795 399.41 549.741 400.002L549.7 400.447L547.083 400.207L547.98 390.43L551.896 387.354C551.182 386.459 550.56 385.456 550.031 384.345C549.502 383.234 549.119 381.987 548.88 380.605C548.672 379.258 548.643 377.761 548.794 376.116ZM551.989 377.653C551.829 379.398 551.973 380.905 552.421 382.174C552.902 383.446 553.583 384.521 554.466 385.399L566.692 375.865C566.118 374.883 565.459 374.108 564.714 373.542C564.002 372.979 563.211 372.558 562.34 372.279C561.5 372.036 560.569 371.868 559.549 371.774C558.561 371.684 557.626 371.747 556.743 371.965C555.89 372.219 555.125 372.597 554.448 373.099C553.771 373.601 553.216 374.231 552.781 374.987C552.344 375.777 552.08 376.666 551.989 377.653ZM571.429 380.133C572.092 381.588 572.879 382.606 573.788 383.187C574.727 383.804 575.954 384.182 577.468 384.321C578.258 384.394 578.958 384.358 579.569 384.215C580.212 384.075 580.738 383.775 581.145 383.314C581.553 382.854 581.799 382.162 581.883 381.241C581.986 380.122 581.666 379.262 580.924 378.663C580.18 378.097 579.215 377.76 578.03 377.651C577.273 377.582 576.538 377.63 575.826 377.797C575.146 377.968 574.458 378.236 573.76 378.604C573.059 379.004 572.282 379.514 571.429 380.133Z" fill="#103CC4"/>
<path d="M543.369 413.34L545.838 414.241L545.124 416.197C544.965 416.632 544.886 417.042 544.885 417.429C544.873 417.847 545.03 418.239 545.354 418.603C545.678 418.968 546.244 419.298 547.052 419.592L569.735 427.871C570.573 428.177 571.234 428.295 571.717 428.225C572.2 428.155 572.571 427.956 572.832 427.629C573.081 427.333 573.284 426.967 573.443 426.532L574.157 424.576L576.626 425.477L571.152 440.475C570.075 443.425 568.871 445.712 567.539 447.338C566.195 448.994 564.707 450.034 563.075 450.459C561.473 450.894 559.74 450.772 557.877 450.092C556.232 449.492 554.948 448.671 554.025 447.631C553.103 446.591 552.445 445.453 552.051 444.219C551.657 442.984 551.435 441.759 551.386 440.545L539.815 442.603C538.984 442.757 538.253 442.93 537.62 443.121C537.018 443.324 536.5 443.54 536.064 443.768C535.618 444.027 535.243 444.33 534.941 444.677C534.669 445.036 534.454 445.432 534.295 445.867L534.227 446.053L531.759 445.152L532.32 443.615C532.83 442.218 533.324 441.008 533.802 439.986C534.301 439.007 534.831 438.18 535.394 437.506C535.976 436.874 536.655 436.365 537.429 435.979C538.203 435.593 539.11 435.326 540.15 435.177L552.42 433.375L553.541 430.3L544.366 426.952C543.558 426.657 542.913 426.545 542.43 426.615C541.947 426.685 541.576 426.883 541.315 427.211C541.055 427.538 540.851 427.903 540.704 428.307L539.973 430.31L537.505 429.409L543.369 413.34ZM555.291 433.895C554.77 435.323 554.61 436.532 554.812 437.52C555.034 438.551 555.58 439.419 556.449 440.123C557.349 440.839 558.559 441.474 560.081 442.029C561.665 442.607 562.99 442.88 564.058 442.847C565.156 442.826 566.076 442.476 566.817 441.796C567.557 441.116 568.183 440.078 568.693 438.68L569.611 436.165L556.243 431.286L555.291 433.895Z" fill="#103CC4"/>
<path d="M531.445 444.804L533.724 446.111L532.689 447.917C532.458 448.319 532.31 448.71 532.244 449.091C532.161 449.501 532.249 449.913 532.507 450.328C532.764 450.742 533.266 451.163 534.012 451.591L554.787 463.503C555.619 463.98 556.278 464.225 556.766 464.238C557.266 464.296 557.673 464.186 557.985 463.907C558.309 463.674 558.594 463.343 558.841 462.912L559.877 461.106L562.156 462.413L548.468 486.285L540.455 481.92L542.182 478.909L544.327 479.853C545.076 480.206 545.746 480.4 546.337 480.434C546.939 480.512 547.477 480.439 547.948 480.215C548.42 479.99 548.829 479.576 549.174 478.974L553.318 471.748L542.564 465.582L536.719 475.776L534.138 474.297L539.983 464.102L527.853 457.147L522.921 465.75C522.592 466.324 522.464 466.879 522.537 467.416C522.61 467.953 522.833 468.462 523.205 468.942C523.561 469.451 524.03 469.93 524.611 470.377L526.436 471.881L524.734 474.849L516.992 470.009L531.445 444.804Z" fill="#103CC4"/>
<path d="M507.45 481.124C508.832 479.393 510.142 478.07 511.38 477.155C512.644 476.261 513.813 475.671 514.887 475.386C515.986 475.122 516.982 475.093 517.875 475.298C518.748 475.53 519.494 475.893 520.114 476.388C520.993 477.089 521.525 477.853 521.712 478.679C521.924 479.525 521.878 480.377 521.575 481.234C521.271 482.091 520.82 482.894 520.222 483.644C518.749 482.468 517.334 481.698 515.976 481.332C514.623 481.014 513.369 481.048 512.213 481.437C511.083 481.845 510.105 482.567 509.28 483.6C508.063 485.124 507.525 486.619 507.666 488.085C507.786 489.577 508.44 490.797 509.629 491.746C510.507 492.447 511.452 492.8 512.464 492.804C513.481 492.854 514.629 492.608 515.909 492.065C517.215 491.542 518.742 490.795 520.491 489.823C522.106 488.913 523.582 488.23 524.918 487.774C526.255 487.319 527.486 487.075 528.611 487.043C529.762 487.031 530.829 487.206 531.81 487.566C532.796 487.973 533.767 488.558 534.723 489.321C536.299 490.579 537.338 492.086 537.84 493.841C538.343 495.595 538.35 497.441 537.861 499.377C537.352 501.339 536.375 503.224 534.932 505.033C533.405 506.944 531.951 508.342 530.568 509.226C529.211 510.131 527.97 510.599 526.845 510.631C525.699 510.689 524.7 510.378 523.847 509.697C522.943 508.975 522.501 507.966 522.52 506.671C522.519 505.401 523.158 503.965 524.437 502.363C525.16 502.941 526.048 503.418 527.102 503.793C528.135 504.195 529.185 504.336 530.254 504.216C531.322 504.097 532.259 503.533 533.063 502.526C533.62 501.828 533.993 501.069 534.184 500.248C534.379 499.473 534.35 498.689 534.096 497.894C533.848 497.146 533.336 496.462 532.561 495.843C531.838 495.266 531.032 494.898 530.144 494.738C529.256 494.579 528.131 494.717 526.768 495.152C525.432 495.607 523.724 496.422 521.644 497.596C519.498 498.801 517.604 499.636 515.963 500.103C514.322 500.569 512.815 500.655 511.441 500.362C510.094 500.09 508.787 499.449 507.521 498.438C505.868 497.118 504.746 495.503 504.156 493.594C503.571 491.731 503.546 489.723 504.08 487.569C504.615 485.416 505.739 483.268 507.45 481.124Z" fill="#103CC4"/>
<path d="M493.668 497.472L495.448 499.405L493.915 500.816C493.551 501.151 493.279 501.491 493.101 501.834C492.921 502.225 492.915 502.657 493.082 503.132C493.225 503.629 493.61 504.218 494.237 504.899L512.199 524.42L515.118 521.734C515.847 521.062 516.318 520.427 516.53 519.827C516.765 519.252 516.8 518.681 516.637 518.112C516.473 517.544 516.182 516.959 515.762 516.357L513.936 513.859L516.381 511.61L522.712 518.856L499.981 539.772L493.285 532.862L495.73 530.613L498.066 532.64C498.608 533.13 499.167 533.469 499.744 533.657C500.296 533.867 500.869 533.879 501.462 533.693C502.076 533.532 502.749 533.115 503.479 532.444L506.397 529.758L488.436 510.238C487.809 509.557 487.266 509.113 486.807 508.907C486.323 508.723 485.879 508.704 485.475 508.851C485.094 509.023 484.733 509.265 484.393 509.578L482.86 510.988L481.081 509.055L493.668 497.472Z" fill="#103CC4"/>
<path d="M474.953 513.832L476.463 515.983L474.758 517.179C474.353 517.464 474.039 517.765 473.817 518.082C473.587 518.445 473.524 518.873 473.628 519.366C473.704 519.878 474.008 520.512 474.54 521.27L488.156 540.669C488.706 541.454 489.2 541.955 489.636 542.174C490.064 542.439 490.479 542.512 490.879 542.392C491.272 542.318 491.671 542.139 492.077 541.854L493.781 540.658L495.291 542.809L481.29 552.636L479.78 550.485L481.484 549.289C481.863 549.023 482.168 548.708 482.397 548.345C482.646 548.009 482.732 547.585 482.656 547.074C482.571 546.608 482.253 545.983 481.703 545.198L468.087 525.799C467.556 525.041 467.076 524.53 466.647 524.265C466.192 524.019 465.755 523.943 465.335 524.035C464.934 524.155 464.545 524.348 464.166 524.614L462.461 525.81L460.952 523.659L474.953 513.832Z" fill="#103CC4"/>
<path d="M444.478 543.595C445.701 543.012 446.905 542.695 448.089 542.644C449.287 542.622 450.418 542.999 451.483 543.773C452.517 544.562 453.454 545.837 454.293 547.597C455.146 549.388 455.545 550.918 455.491 552.189C455.422 553.503 454.994 554.604 454.208 555.491C453.437 556.408 452.439 557.158 451.216 557.74C450.022 558.309 448.841 558.597 447.673 558.604C446.489 558.655 445.365 558.294 444.3 557.52C443.22 556.789 442.254 555.529 441.401 553.738C440.562 551.977 440.192 550.433 440.292 549.104C440.361 547.789 440.782 546.674 441.553 545.757C442.309 544.884 443.284 544.164 444.478 543.595Z" fill="#103CC4"/>
<path d="M418.266 543.86L419.541 548.805L414.306 557.887C413.221 559.771 412.356 561.445 411.709 562.909C411.071 564.405 410.62 565.767 410.357 566.996C410.093 568.225 409.99 569.412 410.046 570.558C410.103 571.704 410.292 572.901 410.614 574.15C410.928 575.366 411.344 576.317 411.862 577.002C412.356 577.728 412.937 578.193 413.604 578.397C414.247 578.64 414.953 578.663 415.721 578.465C416.809 578.184 417.591 577.641 418.066 576.836C418.549 576.063 418.774 575.015 418.74 573.692C418.715 572.402 418.467 570.844 417.996 569.02C419.212 568.706 420.326 568.59 421.337 568.67C422.347 568.751 423.195 569.061 423.881 569.601C424.575 570.174 425.07 571.036 425.367 572.188C425.664 573.34 425.557 574.512 425.045 575.702C424.5 576.901 423.518 577.99 422.099 578.971C420.687 579.983 418.813 580.791 416.476 581.394C414.076 582.013 411.977 582.213 410.179 581.994C408.382 581.774 406.914 581.18 405.777 580.21C404.639 579.241 403.856 577.924 403.426 576.259C403.195 575.363 403.096 574.45 403.129 573.52C403.171 572.621 403.36 571.634 403.697 570.557C404.001 569.489 404.489 568.27 405.161 566.902C405.808 565.575 406.655 564.025 407.7 562.254C408.745 560.482 409.992 558.436 411.442 556.117L415.067 550.317L403.88 553.202C402.888 553.458 402.13 553.961 401.607 554.71C401.051 555.468 400.765 556.412 400.75 557.543L400.75 559.13L397.917 559.861L395.557 549.717L418.266 543.86Z" fill="#103CC4"/>
<path d="M378.341 551.452C381.333 551.142 383.795 551.651 385.727 552.979C387.66 554.307 389.162 556.295 390.234 558.942C391.273 561.593 391.982 564.743 392.361 568.392C392.74 572.042 392.691 575.254 392.214 578.028C391.705 580.806 390.639 583.027 389.017 584.691C387.395 586.354 385.072 587.343 382.047 587.657C379.187 587.954 376.808 587.453 374.912 586.154C372.983 584.858 371.466 582.889 370.361 580.245C369.26 577.635 368.519 574.504 368.141 570.855C367.762 567.205 367.842 563.974 368.381 561.159C368.923 558.378 370.004 556.139 371.622 554.442C373.241 552.746 375.48 551.749 378.341 551.452ZM378.673 554.658C377.753 554.754 377.047 555.159 376.556 555.875C376.036 556.627 375.695 557.659 375.532 558.972C375.336 560.288 375.268 561.874 375.328 563.729C375.387 565.584 375.54 567.695 375.785 570.062C376.031 572.429 376.313 574.51 376.632 576.305C376.922 578.136 377.298 579.675 377.759 580.923C378.221 582.172 378.782 583.094 379.442 583.69C380.069 584.29 380.827 584.543 381.714 584.451C382.635 584.356 383.357 583.948 383.881 583.229C384.404 582.51 384.764 581.493 384.96 580.176C385.156 578.86 385.224 577.274 385.164 575.42C385.108 573.598 384.957 571.503 384.712 569.136C384.466 566.769 384.182 564.671 383.859 562.844C383.537 561.016 383.145 559.478 382.683 558.23C382.221 556.982 381.675 556.042 381.044 555.409C380.384 554.813 379.594 554.563 378.673 554.658Z" fill="#103CC4"/>
<path d="M362.004 553.321L361.768 558.422L354.091 565.562C352.501 567.044 351.181 568.389 350.132 569.598C349.082 570.84 348.25 572.009 347.637 573.106C347.024 574.203 346.575 575.307 346.292 576.419C346.009 577.531 345.838 578.731 345.778 580.018C345.72 581.273 345.838 582.304 346.132 583.112C346.391 583.951 346.809 584.566 347.386 584.957C347.929 585.379 348.597 585.609 349.39 585.646C350.512 585.697 351.419 585.409 352.11 584.779C352.799 584.182 353.323 583.246 353.679 581.972C354.035 580.731 354.256 579.17 354.343 577.288C355.598 577.346 356.696 577.562 357.638 577.937C358.581 578.311 359.3 578.857 359.796 579.575C360.291 580.326 360.511 581.296 360.456 582.485C360.401 583.673 359.953 584.761 359.113 585.748C358.241 586.733 356.981 587.486 355.336 588.005C353.689 588.558 351.66 588.778 349.25 588.667C346.773 588.552 344.708 588.126 343.055 587.387C341.401 586.649 340.174 585.649 339.372 584.388C338.57 583.126 338.208 581.637 338.288 579.92C338.331 578.995 338.505 578.094 338.81 577.214C339.114 576.368 339.585 575.48 340.224 574.55C340.83 573.618 341.655 572.597 342.699 571.488C343.708 570.409 344.973 569.177 346.493 567.792C348.013 566.406 349.807 564.818 351.876 563.027L357.046 558.551L345.506 558.017C344.482 557.97 343.61 558.227 342.889 558.79C342.135 559.35 341.584 560.169 341.237 561.245L340.77 562.762L337.847 562.626L338.576 552.237L362.004 553.321Z" fill="#103CC4"/>
<path d="M323.343 549.152C325.774 549.636 327.664 550.3 329.013 551.141C330.355 552.016 331.264 552.955 331.737 553.96C332.205 554.997 332.338 556.017 332.138 557.022C331.912 558.157 331.387 558.929 330.564 559.338C329.741 559.747 328.746 559.835 327.579 559.602C327.76 558.694 327.779 557.754 327.636 556.782C327.46 555.803 327.041 554.945 326.38 554.206C325.718 553.468 324.723 552.966 323.393 552.701C322.324 552.488 321.29 552.517 320.292 552.79C319.287 553.096 318.396 553.761 317.619 554.785C316.841 555.81 316.256 557.311 315.862 559.289C315.538 560.91 315.53 562.307 315.835 563.48C316.141 564.653 316.744 565.599 317.646 566.318C318.515 567.031 319.646 567.526 321.04 567.804C321.851 567.965 322.59 568.062 323.257 568.094C323.886 568.152 324.473 568.168 325.017 568.141C325.562 568.115 326.094 568.069 326.612 568.004L328.674 569.325L323.765 585.84L305.384 582.176L306.905 573.277L309.677 573.83L309.736 575.561C309.756 575.969 309.821 576.319 309.931 576.611C310.003 576.928 310.172 577.181 310.437 577.369C310.697 577.589 311.086 577.751 311.605 577.854L321.719 579.871L324.29 571.03C323.908 571.088 323.415 571.108 322.812 571.089C322.203 571.103 321.551 571.074 320.857 571.003C320.131 570.926 319.444 570.822 318.796 570.693C316.267 570.189 314.157 569.364 312.464 568.217C310.732 567.097 309.519 565.659 308.824 563.902C308.091 562.172 307.957 560.14 308.422 557.806C308.758 556.12 309.311 554.697 310.082 553.536C310.814 552.401 311.688 551.48 312.706 550.773C313.716 550.098 314.828 549.595 316.04 549.263C317.246 548.964 318.471 548.821 319.715 548.833C320.966 548.813 322.176 548.919 323.343 549.152Z" fill="#103CC4"/>
<path d="M281.784 547.379C283.037 547.896 284.08 548.575 284.912 549.419C285.732 550.292 286.212 551.384 286.352 552.693C286.461 553.989 286.145 555.539 285.402 557.342C284.647 559.176 283.78 560.499 282.802 561.312C281.781 562.142 280.678 562.564 279.493 562.577C278.295 562.62 277.07 562.383 275.817 561.867C274.594 561.363 273.588 560.681 272.799 559.82C271.967 558.976 271.481 557.9 271.34 556.591C271.157 555.3 271.443 553.738 272.198 551.904C272.941 550.101 273.838 548.79 274.89 547.972C275.912 547.142 277.021 546.705 278.218 546.662C279.373 546.637 280.561 546.876 281.784 547.379Z" fill="#103CC4"/>
<circle cx="360.001" cy="360" r="272" stroke="#103CC4" stroke-width="40"/>
<circle cx="360" cy="360" r="339.31" stroke="#103CC4" stroke-width="41.3793"/>
<path d="M202.551 438.303L202.551 426.397L211.986 426.397C214.082 426.397 215.954 426.098 217.602 425.499C219.399 424.9 220.821 423.627 221.87 421.68C222.918 419.733 223.442 416.813 223.442 412.919L223.442 303.523C223.442 299.48 222.918 296.484 221.87 294.538C220.821 292.591 219.399 291.318 217.602 290.719C215.954 290.12 214.082 289.82 211.986 289.82L202.551 289.82L202.551 277.915L274.883 277.915C289.11 277.915 300.716 279.487 309.701 282.632C318.836 285.777 325.575 290.494 329.918 296.784C334.261 302.924 336.433 310.487 336.433 319.472C336.433 327.409 334.935 334.148 331.94 339.689C328.945 345.23 325.126 349.797 320.484 353.392C315.841 356.986 310.974 359.831 305.883 361.928L332.614 407.977C334.561 411.272 336.433 414.117 338.23 416.514C340.027 418.76 341.749 420.632 343.396 422.129C345.193 423.627 347.065 424.75 349.012 425.499C350.959 426.098 352.981 426.397 355.077 426.397L355.976 426.397L355.976 438.303L348.563 438.303C341.824 438.303 335.909 438.078 330.817 437.629C325.875 437.03 321.532 436.057 317.788 434.709C314.194 433.211 310.974 431.115 308.129 428.419C305.284 425.724 302.738 422.279 300.491 418.086L273.76 368.667L258.934 368.667L258.934 412.919C258.934 416.813 259.458 419.733 260.507 421.68C261.555 423.627 262.978 424.9 264.775 425.499C266.572 426.098 268.444 426.397 270.39 426.397L280.05 426.397L280.05 438.303L202.551 438.303ZM271.514 355.638C278.402 355.638 283.794 354.44 287.687 352.044C291.731 349.498 294.576 345.829 296.223 341.037C297.871 336.095 298.694 329.955 298.694 322.617C298.694 314.979 297.796 308.914 295.999 304.422C294.202 299.779 291.281 296.41 287.238 294.313C283.195 292.216 277.803 291.168 271.064 291.168L258.934 291.168L258.934 355.638L271.514 355.638Z" fill="#103CC4"/>
<path d="M517.821 438.303L517.821 426.397L508.386 426.397C506.29 426.397 504.418 426.098 502.77 425.499C500.973 424.9 499.551 423.627 498.502 421.68C497.454 419.733 496.93 416.813 496.93 412.919L496.93 303.523C496.93 299.48 497.454 296.484 498.502 294.538C499.551 292.591 500.973 291.318 502.77 290.719C504.418 290.12 506.29 289.82 508.386 289.82L517.821 289.82L517.821 277.915L445.489 277.915C431.262 277.915 419.656 279.487 410.671 282.632C401.536 285.777 394.797 290.494 390.454 296.784C386.111 302.924 383.939 310.487 383.939 319.472C383.939 327.409 385.437 334.148 388.432 339.689C391.427 345.23 395.246 349.797 399.888 353.392C404.531 356.986 409.398 359.831 414.49 361.928L387.758 407.977C385.811 411.272 383.939 414.117 382.142 416.514C380.345 418.76 378.623 420.632 376.976 422.129C375.179 423.627 373.307 424.75 371.36 425.499C369.413 426.098 367.391 426.397 365.295 426.397L364.396 426.397L364.396 438.303L371.809 438.303C378.548 438.303 384.464 438.078 389.555 437.629C394.497 437.03 398.84 436.057 402.584 434.709C406.178 433.211 409.398 431.115 412.243 428.419C415.089 425.724 417.634 422.279 419.881 418.086L446.612 368.667L461.438 368.667L461.438 412.919C461.438 416.813 460.914 419.733 459.865 421.68C458.817 423.627 457.395 424.9 455.597 425.499C453.8 426.098 451.928 426.397 449.982 426.397L440.322 426.397L440.322 438.303L517.821 438.303ZM448.858 355.638C441.97 355.638 436.578 354.44 432.685 352.044C428.641 349.498 425.796 345.829 424.149 341.037C422.501 336.095 421.678 329.955 421.678 322.617C421.678 314.979 422.576 308.914 424.373 304.422C426.17 299.779 429.091 296.41 433.134 294.313C437.178 292.216 442.569 291.168 449.308 291.168L461.438 291.168L461.438 355.638L448.858 355.638Z" fill="#103CC4"/>
</svg>
